<svg xmlns="http://www.w3.org/2000/svg" xmlns:xlink="http://www.w3.org/1999/xlink" width="500" zoomAndPan="magnify" viewBox="0 0 375 374.999991" height="500" preserveAspectRatio="xMidYMid meet" version="1.0"><defs><clipPath id="b6d7a12f7c"><path d="M 1 27.613281 L 369 27.613281 L 369 347.113281 L 1 347.113281 Z M 1 27.613281 " clip-rule="nonzero"/></clipPath></defs><g clip-path="url(#b6d7a12f7c)"><path fill="#10b981" d="M 365.105469 309.277344 L 206.632812 40.097656 C 206.355469 39.625 206.0625 39.164062 205.757812 38.710938 C 205.449219 38.257812 205.128906 37.816406 204.792969 37.386719 C 204.457031 36.953125 204.105469 36.535156 203.742188 36.125 C 203.378906 35.71875 203.003906 35.320312 202.617188 34.9375 C 202.226562 34.554688 201.824219 34.183594 201.414062 33.824219 C 201 33.464844 200.574219 33.121094 200.140625 32.792969 C 199.703125 32.460938 199.257812 32.144531 198.804688 31.84375 C 198.347656 31.542969 197.882812 31.253906 197.40625 30.984375 C 196.933594 30.710938 196.449219 30.457031 195.957031 30.21875 C 195.46875 29.976562 194.96875 29.753906 194.464844 29.546875 C 193.957031 29.339844 193.445312 29.148438 192.929688 28.972656 C 192.410156 28.796875 191.886719 28.640625 191.359375 28.5 C 190.828125 28.359375 190.296875 28.238281 189.761719 28.132812 C 189.226562 28.027344 188.6875 27.9375 188.144531 27.867188 C 187.601562 27.796875 187.058594 27.742188 186.511719 27.707031 C 185.96875 27.671875 185.421875 27.652344 184.875 27.652344 C 184.328125 27.652344 183.78125 27.671875 183.238281 27.707031 C 182.691406 27.742188 182.148438 27.796875 181.605469 27.867188 C 181.0625 27.9375 180.523438 28.027344 179.988281 28.132812 C 179.453125 28.238281 178.917969 28.359375 178.390625 28.5 C 177.863281 28.640625 177.339844 28.796875 176.820312 28.972656 C 176.304688 29.148438 175.792969 29.339844 175.285156 29.546875 C 174.78125 29.753906 174.28125 29.976562 173.789062 30.21875 C 173.300781 30.457031 172.816406 30.710938 172.34375 30.984375 C 171.867188 31.253906 171.402344 31.542969 170.945312 31.84375 C 170.492188 32.144531 170.042969 32.460938 169.609375 32.792969 C 169.175781 33.121094 168.75 33.464844 168.335938 33.824219 C 167.921875 34.183594 167.523438 34.554688 167.132812 34.9375 C 166.746094 35.320312 166.367188 35.71875 166.003906 36.125 C 165.640625 36.535156 165.292969 36.953125 164.957031 37.386719 C 164.621094 37.816406 164.300781 38.257812 163.992188 38.710938 C 163.683594 39.164062 163.394531 39.625 163.117188 40.097656 L 4.652344 309.277344 C 4.089844 310.230469 3.589844 311.21875 3.160156 312.238281 C 2.726562 313.257812 2.363281 314.304688 2.066406 315.371094 C 1.773438 316.441406 1.546875 317.523438 1.394531 318.621094 C 1.242188 319.71875 1.164062 320.820312 1.15625 321.929688 C 1.148438 323.035156 1.214844 324.140625 1.351562 325.238281 C 1.488281 326.339844 1.699219 327.425781 1.980469 328.496094 C 2.261719 329.566406 2.609375 330.617188 3.027344 331.644531 C 3.449219 332.667969 3.933594 333.664062 4.480469 334.625 C 5.03125 335.585938 5.640625 336.507812 6.3125 337.390625 C 6.984375 338.273438 7.710938 339.105469 8.492188 339.890625 C 9.273438 340.679688 10.101562 341.410156 10.980469 342.085938 C 11.855469 342.761719 12.773438 343.378906 13.730469 343.9375 C 14.691406 344.492188 15.679688 344.984375 16.703125 345.40625 C 17.726562 345.832031 18.773438 346.191406 19.84375 346.476562 C 20.914062 346.765625 22 346.984375 23.097656 347.128906 C 24.195312 347.273438 25.296875 347.34375 26.40625 347.34375 L 343.351562 347.34375 C 362.875 347.34375 375.015625 326.109375 365.105469 309.277344 Z M 31.3125 320.257812 L 182.945312 66.765625 L 334.582031 320.257812 Z M 31.3125 320.257812 " fill-opacity="1" fill-rule="nonzero"/></g><path fill="#10b981" d="M 164.320312 283.597656 C 164.320312 272.234375 172.21875 264.023438 182.945312 264.023438 C 194.308594 264.023438 201.574219 272.234375 201.574219 283.597656 C 201.574219 294.652344 194.308594 303.171875 182.945312 303.171875 C 171.898438 303.171875 164.320312 294.652344 164.320312 283.597656 Z M 172.316406 248.558594 L 164.617188 141.679688 C 164.234375 136.363281 172.609375 131.984375 182.953125 131.984375 C 193.285156 131.984375 201.679688 136.363281 201.292969 141.679688 L 193.589844 248.558594 C 193.328125 252.1875 188.660156 255.050781 182.945312 255.050781 C 177.230469 255.050781 172.5625 252.1875 172.304688 248.558594 Z M 172.316406 248.558594 " fill-opacity="1" fill-rule="nonzero"/></svg>