<svg xmlns="http://www.w3.org/2000/svg" xmlns:xlink="http://www.w3.org/1999/xlink" width="500" zoomAndPan="magnify" viewBox="0 0 375 374.999991" height="500" preserveAspectRatio="xMidYMid meet" version="1.0"><path fill="#10b981" d="M 178.753906 238.835938 L 167.109375 103.277344 L 207.960938 103.277344 L 196.3125 238.835938 Z M 178.753906 238.835938 " fill-opacity="1" fill-rule="nonzero"/><path fill="#10b981" d="M 178.070312 252.851562 L 197 252.851562 L 197 271.777344 L 178.070312 271.777344 Z M 178.070312 252.851562 " fill-opacity="1" fill-rule="nonzero"/><path stroke-linecap="round" transform="matrix(1.368613, 0, 0, 1.368613, 0.0000045, 0)" fill="none" stroke-linejoin="round" d="M 268.671287 137.019989 C 268.671287 139.174885 268.617058 141.326927 268.511454 143.478969 C 268.40585 145.631011 268.246016 147.780198 268.034808 149.923678 C 267.8236 152.067157 267.561016 154.204928 267.244204 156.336991 C 266.930245 158.469053 266.562058 160.589699 266.139641 162.704637 C 265.720079 164.81672 265.249141 166.917387 264.723974 169.009492 C 264.201662 171.098742 263.627974 173.173721 263.000058 175.237284 C 262.374995 177.297992 261.701412 179.341576 260.973599 181.370888 C 260.248641 183.400201 259.472307 185.409534 258.647453 187.398889 C 257.825453 189.391097 256.952078 191.360472 256.030182 193.307014 C 255.108286 195.25641 254.140724 197.180119 253.12464 199.07814 C 252.108557 200.979015 251.046807 202.854202 249.93939 204.700848 C 248.831973 206.550349 247.67889 208.368453 246.482994 210.16087 C 245.287098 211.953286 244.045535 213.714307 242.76116 215.443932 C 241.479639 217.173558 240.152452 218.871787 238.78816 220.53862 C 237.421014 222.2026 236.01391 223.835183 234.566847 225.430662 C 233.119785 227.026142 231.632764 228.587371 230.111493 230.111496 C 228.587368 231.632767 227.026138 233.119788 225.430659 234.566851 C 223.83518 236.013913 222.202596 237.421017 220.538617 238.788163 C 218.871784 240.152455 217.173554 241.479643 215.443929 242.761164 C 213.714304 244.045539 211.953283 245.287101 210.160866 246.482997 C 208.36845 247.678893 206.550345 248.831977 204.700845 249.939393 C 202.854199 251.04681 200.979011 252.10856 199.078136 253.124644 C 197.180115 254.140727 195.256407 255.10829 193.307011 256.030185 C 191.360469 256.952081 189.391094 257.825456 187.398885 258.647457 C 185.409531 259.472311 183.400198 260.248644 181.370885 260.973603 C 179.341572 261.701415 177.297989 262.374998 175.23728 263.000061 C 173.173718 263.627978 171.098738 264.201665 169.009488 264.723978 C 166.917384 265.249144 164.816717 265.720082 162.704634 266.139645 C 160.589696 266.562061 158.46905 266.930249 156.336987 267.244207 C 154.204925 267.56102 152.067154 267.823603 149.923674 268.034811 C 147.780195 268.24602 145.631007 268.405853 143.478966 268.511457 C 141.326924 268.617061 139.174882 268.671291 137.019986 268.671291 C 134.86509 268.671291 132.713048 268.617061 130.561006 268.511457 C 128.408964 268.405853 126.259777 268.24602 124.116297 268.034811 C 121.972818 267.823603 119.835047 267.56102 117.702985 267.244207 C 115.570922 266.930249 113.450276 266.562061 111.335338 266.139645 C 109.223255 265.720082 107.122588 265.249144 105.030484 264.723978 C 102.941233 264.201665 100.866254 263.627978 98.802691 263.000061 C 96.741983 262.374998 94.6984 261.701415 92.669087 260.973603 C 90.639774 260.248644 88.630441 259.472311 86.641086 258.647457 C 84.648878 257.825456 82.679503 256.952081 80.732961 256.030185 C 78.783565 255.10829 76.859857 254.140727 74.961836 253.124644 C 73.06096 252.10856 71.185773 251.04681 69.339127 249.939393 C 67.489627 248.831977 65.671522 247.678893 63.879106 246.482997 C 62.086689 245.287101 60.325668 244.045539 58.596043 242.761164 C 56.866418 241.479643 55.168188 240.152455 53.501355 238.788163 C 51.837376 237.421017 50.204792 236.013913 48.609313 234.566851 C 47.013833 233.119788 45.452604 231.632767 43.928479 230.111496 C 42.407208 228.587371 40.920187 227.026142 39.473125 225.430662 C 38.026062 223.835183 36.618958 222.2026 35.251812 220.53862 C 33.88752 218.871787 32.560332 217.173558 31.278812 215.443932 C 29.994436 213.714307 28.752874 211.953286 27.556978 210.16087 C 26.361082 208.368453 25.207999 206.550349 24.100582 204.700848 C 22.993165 202.854202 21.931415 200.979015 20.915332 199.07814 C 19.899248 197.180119 18.931686 195.25641 18.00979 193.307014 C 17.087894 191.360472 16.214519 189.391097 15.392519 187.398889 C 14.567664 185.409534 13.791331 183.400201 13.066373 181.370888 C 12.33856 179.341576 11.664977 177.297992 11.039914 175.237284 C 10.411997 173.173721 9.83831 171.098742 9.315997 169.009492 C 8.790831 166.917387 8.319893 164.81672 7.900331 162.704637 C 7.477914 160.589699 7.109726 158.469053 6.795768 156.336991 C 6.478956 154.204928 6.216372 152.067157 6.005164 149.923678 C 5.793955 147.780198 5.634122 145.631011 5.528518 143.478969 C 5.422914 141.326927 5.368685 139.174885 5.368685 137.019989 C 5.368685 134.865093 5.422914 132.713051 5.528518 130.56101 C 5.634122 128.408968 5.793955 126.25978 6.005164 124.116301 C 6.216372 121.972821 6.478956 119.83505 6.795768 117.702988 C 7.109726 115.570925 7.477914 113.450279 7.900331 111.335342 C 8.319893 109.223258 8.790831 107.122591 9.315997 105.030487 C 9.83831 102.941237 10.411997 100.866257 11.039914 98.802695 C 11.664977 96.741986 12.33856 94.698403 13.066373 92.66909 C 13.791331 90.639777 14.567664 88.630444 15.392519 86.64109 C 16.214519 84.648881 17.087894 82.679506 18.00979 80.732964 C 18.931686 78.783568 19.899248 76.85986 20.915332 74.961839 C 21.931415 73.060964 22.993165 71.185776 24.100582 69.33913 C 25.207999 67.48963 26.361082 65.671526 27.556978 63.879109 C 28.752874 62.086692 29.994436 60.325671 31.278812 58.596046 C 32.560332 56.866421 33.88752 55.168192 35.251812 53.501358 C 36.618958 51.837379 38.026062 50.204795 39.473125 48.609316 C 40.920187 47.013837 42.407208 45.452608 43.928479 43.928482 C 45.452604 42.407211 47.013833 40.920191 48.609313 39.473128 C 50.204792 38.026065 51.837376 36.618961 53.501355 35.251815 C 55.168188 33.887523 56.866418 32.560336 58.596043 31.278815 C 60.325668 29.99444 62.086689 28.752877 63.879106 27.556981 C 65.671522 26.361085 67.489627 25.208002 69.339127 24.100585 C 71.185773 22.993168 73.06096 21.931418 74.961836 20.915335 C 76.859857 19.899251 78.783565 18.931689 80.732961 18.009793 C 82.679503 17.087897 84.648878 16.214522 86.641086 15.392522 C 88.630441 14.567668 90.639774 13.791334 92.669087 13.066376 C 94.6984 12.338563 96.741983 11.66498 98.802691 11.039917 C 100.866254 10.412001 102.941233 9.838313 105.030484 9.316001 C 107.122588 8.790834 109.223255 8.319896 111.335338 7.900334 C 113.450276 7.477917 115.570922 7.10973 117.702985 6.795771 C 119.835047 6.478959 121.972818 6.216375 124.116297 6.005167 C 126.259777 5.793959 128.408964 5.634125 130.561006 5.528521 C 132.713048 5.422917 134.86509 5.368688 137.019986 5.368688 C 139.174882 5.368688 141.326924 5.422917 143.478966 5.528521 C 145.631007 5.634125 147.780195 5.793959 149.923674 6.005167 C 152.067154 6.216375 154.204925 6.478959 156.336987 6.795771 C 158.46905 7.10973 160.589696 7.477917 162.704634 7.900334 C 164.816717 8.319896 166.917384 8.790834 169.009488 9.316001 C 171.098738 9.838313 173.173718 10.412001 175.23728 11.039917 C 177.297989 11.66498 179.341572 12.338563 181.370885 13.066376 C 183.400198 13.791334 185.409531 14.567668 187.398885 15.392522 C 189.391094 16.214522 191.360469 17.087897 193.307011 18.009793 C 195.256407 18.931689 197.180115 19.899251 199.078136 20.915335 C 200.979011 21.931418 202.854199 22.993168 204.700845 24.100585 C 206.550345 25.208002 208.36845 26.361085 210.160866 27.556981 C 211.953283 28.752877 213.714304 29.99444 215.443929 31.278815 C 217.173554 32.560336 218.871784 33.887523 220.538617 35.251815 C 222.202596 36.618961 223.83518 38.026065 225.430659 39.473128 C 227.026138 40.920191 228.587368 42.407211 230.111493 43.928482 C 231.632764 45.452608 233.119785 47.013837 234.566847 48.609316 C 236.01391 50.204795 237.421014 51.837379 238.78816 53.501358 C 240.152452 55.168192 241.479639 56.866421 242.76116 58.596046 C 244.045535 60.325671 245.287098 62.086692 246.482994 63.879109 C 247.67889 65.671526 248.831973 67.48963 249.93939 69.33913 C 251.046807 71.185776 252.108557 73.060964 253.12464 74.961839 C 254.140724 76.85986 255.108286 78.783568 256.030182 80.732964 C 256.952078 82.679506 257.825453 84.648881 258.647453 86.64109 C 259.472307 88.630444 260.248641 90.639777 260.973599 92.66909 C 261.701412 94.698403 262.374995 96.741986 263.000058 98.802695 C 263.627974 100.866257 264.201662 102.941237 264.723974 105.030487 C 265.249141 107.122591 265.720079 109.223258 266.139641 111.335342 C 266.562058 113.450279 266.930245 115.570925 267.244204 117.702988 C 267.561016 119.83505 267.8236 121.972821 268.034808 124.116301 C 268.246016 126.25978 268.40585 128.408968 268.511454 130.56101 C 268.617058 132.713051 268.671287 134.865093 268.671287 137.019989 Z M 268.671287 137.019989 " stroke="#000000" stroke-width="10.742" stroke-opacity="1" stroke-miterlimit="10"/></svg>