<svg xmlns="http://www.w3.org/2000/svg" xmlns:xlink="http://www.w3.org/1999/xlink" width="500" zoomAndPan="magnify" viewBox="0 0 375 374.999991" height="500" preserveAspectRatio="xMidYMid meet" version="1.0"><path fill="#10b981" d="M 346.375 0 L 256.617188 0 L 256.617188 333.410156 L 232.421875 333.410156 L 232.421875 84.515625 L 142.660156 84.515625 L 142.660156 333.410156 L 118.464844 333.410156 L 118.464844 150.019531 L 28.703125 150.019531 L 28.703125 333.410156 L 0 333.410156 L 0 375 L 375 375 L 375 333.410156 L 346.375 333.410156 Z M 272.574219 15.957031 L 330.417969 15.957031 L 330.417969 333.410156 L 272.574219 333.410156 Z M 158.539062 100.472656 L 216.382812 100.472656 L 216.382812 333.410156 L 158.539062 333.410156 Z M 44.582031 165.976562 L 102.425781 165.976562 L 102.425781 333.410156 L 44.582031 333.410156 Z M 359.042969 349.367188 L 359.042969 359.042969 L 15.957031 359.042969 L 15.957031 349.367188 Z M 359.042969 349.367188 " fill-opacity="1" fill-rule="nonzero"/></svg>