<svg xmlns="http://www.w3.org/2000/svg" xmlns:xlink="http://www.w3.org/1999/xlink" width="500" zoomAndPan="magnify" viewBox="0 0 375 374.999991" height="500" preserveAspectRatio="xMidYMid meet" version="1.0"><path fill="#10b981" d="M 340.46875 208.761719 L 338.824219 212.800781 C 332.363281 228.632812 325.714844 245.03125 319.539062 261.289062 C 309.988281 286.546875 307.019531 307.605469 310.207031 327.574219 C 311.300781 333.578125 312.765625 339.492188 314.609375 345.308594 C 315.175781 347.246094 315.746094 349.175781 316.285156 351.113281 C 316.480469 351.519531 316.628906 351.9375 316.730469 352.375 C 316.835938 352.8125 316.894531 353.253906 316.90625 353.703125 C 316.917969 354.152344 316.882812 354.597656 316.800781 355.039062 C 316.71875 355.480469 316.59375 355.90625 316.421875 356.320312 C 316.25 356.738281 316.039062 357.128906 315.785156 357.5 C 315.53125 357.871094 315.242188 358.210938 314.917969 358.519531 C 314.59375 358.828125 314.242188 359.101562 313.859375 359.339844 C 313.476562 359.574219 313.074219 359.765625 312.652344 359.917969 C 312.019531 360.167969 311.363281 360.324219 310.6875 360.394531 C 309.589844 361.023438 308.410156 361.332031 307.148438 361.316406 L 162.738281 361.316406 C 161.636719 361.597656 160.519531 361.753906 159.386719 361.777344 C 158.25 361.804688 157.128906 361.703125 156.015625 361.472656 C 154.902344 361.242188 153.832031 360.890625 152.800781 360.414062 C 151.773438 359.9375 150.808594 359.351562 149.910156 358.65625 C 146.734375 354.722656 144.503906 350.3125 143.214844 345.421875 C 142.84375 344.472656 142.554688 343.664062 142.371094 343.144531 C 134.683594 345.996094 126.769531 347.859375 118.617188 348.730469 C 110.464844 349.597656 102.335938 349.449219 94.222656 348.28125 C 89.816406 347.957031 85.492188 347.175781 81.25 345.941406 C 77.007812 344.710938 72.941406 343.050781 69.046875 340.96875 C 67.324219 339.773438 65.738281 338.414062 64.292969 336.894531 C 62.847656 335.375 61.570312 333.722656 60.460938 331.941406 C 59.351562 330.160156 58.433594 328.285156 57.710938 326.316406 C 56.984375 324.351562 56.464844 322.328125 56.152344 320.253906 C 54.496094 311.402344 55.773438 302.484375 55.003906 293.585938 C 54.515625 288.875 53.398438 284.320312 51.652344 279.917969 C 49.90625 275.519531 47.597656 271.4375 44.722656 267.675781 C 44.230469 267.003906 43.871094 266.273438 43.640625 265.476562 L 42.808594 264.398438 C 42.160156 263.285156 41.832031 262.089844 41.835938 260.800781 L 41.835938 255.304688 C 41.832031 254.949219 41.863281 254.597656 41.929688 254.246094 C 40.636719 252.046875 40.015625 249.671875 40.070312 247.121094 C 40.125 246.382812 40.125 245.644531 40.070312 244.90625 C 40.015625 244.167969 39.910156 243.4375 39.75 242.71875 C 39.589844 241.996094 39.378906 241.289062 39.117188 240.59375 C 38.855469 239.902344 38.542969 239.234375 38.183594 238.589844 C 37.820312 237.941406 37.417969 237.324219 36.96875 236.738281 C 36.515625 236.148438 36.027344 235.597656 35.496094 235.082031 C 34.964844 234.566406 34.402344 234.089844 33.800781 233.65625 C 33.203125 233.222656 32.574219 232.835938 31.917969 232.492188 C 31.335938 232.1875 30.769531 231.855469 30.21875 231.496094 C 29.667969 231.136719 29.132812 230.75 28.621094 230.339844 C 28.109375 229.925781 27.617188 229.488281 27.148438 229.027344 C 26.679688 228.566406 26.234375 228.082031 25.8125 227.578125 C 25.390625 227.074219 24.996094 226.546875 24.625 226.003906 C 24.257812 225.460938 23.914062 224.898438 23.601562 224.320312 C 23.289062 223.742188 23.003906 223.148438 22.746094 222.542969 C 22.492188 221.9375 22.265625 221.320312 22.074219 220.691406 C 21.878906 220.0625 21.714844 219.425781 21.582031 218.78125 C 21.453125 218.136719 21.351562 217.484375 21.285156 216.832031 C 21.21875 216.175781 21.183594 215.519531 21.183594 214.863281 C 21.179688 214.203125 21.210938 213.546875 21.273438 212.894531 C 21.335938 212.238281 21.429688 211.589844 21.558594 210.941406 C 21.6875 210.296875 21.84375 209.660156 22.035156 209.03125 C 22.226562 208.398438 22.445312 207.78125 22.699219 207.171875 C 22.949219 206.566406 23.230469 205.972656 23.539062 205.390625 C 26.144531 199.730469 29.445312 194.503906 33.433594 189.714844 C 37.402344 185.015625 40.679688 179.875 43.257812 174.289062 C 45.835938 168.707031 47.628906 162.878906 48.632812 156.808594 C 49.820312 149.210938 50.3125 141.359375 50.800781 133.769531 C 51.125 128.542969 51.46875 123.167969 52.027344 117.890625 C 57.0625 70.574219 81.039062 37.292969 123.277344 18.972656 C 136.050781 13.683594 149.1875 9.542969 162.683594 6.542969 C 176.179688 3.542969 189.832031 1.734375 203.644531 1.117188 C 207.804688 1.078125 211.953125 1.210938 216.101562 1.523438 C 220.246094 1.832031 224.371094 2.316406 228.476562 2.972656 C 232.582031 3.632812 236.648438 4.464844 240.683594 5.464844 C 244.71875 6.46875 248.703125 7.636719 252.640625 8.976562 C 256.574219 10.316406 260.449219 11.816406 264.257812 13.480469 C 268.066406 15.148438 271.796875 16.972656 275.453125 18.953125 C 279.109375 20.933594 282.671875 23.0625 286.148438 25.34375 C 289.625 27.628906 292.996094 30.050781 296.265625 32.617188 C 299.457031 35.132812 302.53125 37.777344 305.496094 40.554688 C 308.457031 43.328125 311.296875 46.226562 314.011719 49.246094 C 316.726562 52.265625 319.308594 55.398438 321.753906 58.636719 C 324.199219 61.878906 326.503906 65.21875 328.664062 68.65625 C 330.824219 72.09375 332.835938 75.617188 334.695312 79.226562 C 336.554688 82.839844 338.253906 86.519531 339.800781 90.277344 C 341.34375 94.03125 342.722656 97.847656 343.941406 101.722656 C 345.15625 105.59375 346.207031 109.515625 347.089844 113.476562 C 349.0625 121.34375 350.40625 129.316406 351.121094 137.394531 C 351.832031 145.472656 351.910156 153.554688 351.347656 161.648438 C 350.785156 169.738281 349.59375 177.734375 347.765625 185.632812 C 345.941406 193.535156 343.507812 201.246094 340.46875 208.761719 Z M 335.214844 120.65625 C 323.859375 64.390625 280.851562 23.257812 225.636719 15.867188 C 216.234375 14.699219 206.800781 14.28125 197.332031 14.609375 C 187.863281 14.9375 178.480469 16.011719 169.183594 17.832031 C 159.886719 19.652344 150.789062 22.191406 141.894531 25.453125 C 133 28.714844 124.417969 32.660156 116.152344 37.28125 C 113.179688 38.820312 110.296875 40.515625 107.511719 42.371094 C 104.726562 44.222656 102.050781 46.226562 99.488281 48.378906 C 96.921875 50.527344 94.484375 52.8125 92.171875 55.230469 C 89.859375 57.652344 87.6875 60.191406 85.65625 62.847656 C 83.625 65.507812 81.742188 68.273438 80.015625 71.136719 C 78.289062 74.003906 76.726562 76.957031 75.324219 79.996094 C 73.925781 83.039062 72.695312 86.144531 71.636719 89.320312 C 70.582031 92.496094 69.703125 95.71875 69 98.992188 C 66.101562 111.695312 64.519531 124.5625 64.25 137.59375 C 64.222656 143.253906 63.726562 148.871094 62.757812 154.445312 C 61.785156 160.023438 60.359375 165.476562 58.472656 170.816406 C 56.585938 176.152344 54.269531 181.292969 51.519531 186.238281 C 48.769531 191.1875 45.628906 195.871094 42.09375 200.289062 C 39.894531 202.902344 37.960938 205.699219 36.296875 208.683594 C 33.019531 214.886719 33.96875 218.394531 39.925781 222.085938 C 40.925781 222.628906 41.882812 223.242188 42.800781 223.914062 C 43.71875 224.589844 44.585938 225.324219 45.402344 226.117188 C 46.21875 226.910156 46.980469 227.753906 47.683594 228.648438 C 48.382812 229.546875 49.023438 230.484375 49.597656 231.46875 C 50.171875 232.449219 50.679688 233.46875 51.113281 234.519531 C 51.550781 235.570312 51.914062 236.644531 52.207031 237.746094 C 52.496094 238.847656 52.710938 239.964844 52.851562 241.09375 C 52.988281 242.222656 53.050781 243.355469 53.035156 244.496094 C 52.890625 245.601562 53.15625 246.597656 53.839844 247.484375 C 54.769531 248.164062 55.800781 248.414062 56.941406 248.238281 C 63.65625 248.105469 70.621094 248.109375 77.648438 248.238281 C 78.679688 248.191406 79.679688 248.351562 80.648438 248.710938 C 81.617188 249.066406 82.476562 249.601562 83.230469 250.308594 C 83.816406 250.972656 84.246094 251.726562 84.519531 252.566406 C 84.792969 253.410156 84.882812 254.273438 84.796875 255.152344 C 84.636719 259.128906 82.066406 261.328125 77.5625 261.328125 C 75.398438 261.328125 73.230469 261.339844 71.0625 261.363281 C 66.632812 261.390625 62.089844 261.390625 57.566406 261.320312 C 59.679688 264.457031 61.523438 267.746094 63.105469 271.183594 C 64.683594 274.617188 65.976562 278.160156 66.988281 281.804688 C 67.996094 285.449219 68.707031 289.152344 69.117188 292.914062 C 69.53125 296.671875 69.636719 300.441406 69.441406 304.21875 C 69.378906 311.257812 68.964844 319.417969 73.179688 325.488281 C 77.453125 331.664062 86.953125 332.753906 93.8125 333.917969 C 122.890625 338.84375 155.617188 329.496094 168.589844 300.949219 C 172.386719 292.613281 184.660156 299.847656 180.890625 308.140625 C 179.5 311.179688 177.882812 314.09375 176.046875 316.878906 C 174.207031 319.667969 172.167969 322.300781 169.921875 324.777344 C 167.679688 327.25 165.261719 329.539062 162.664062 331.644531 C 160.070312 333.746094 157.328125 335.636719 154.441406 337.320312 C 156.058594 340.746094 157.46875 344.089844 158.660156 347.082031 L 300.890625 347.082031 C 299.023438 340.773438 297.660156 334.363281 296.808594 327.839844 C 295.953125 321.320312 295.617188 314.769531 295.804688 308.195312 C 295.988281 301.621094 296.691406 295.101562 297.910156 288.640625 C 299.125 282.175781 300.847656 275.851562 303.066406 269.660156 C 310.082031 249.113281 318.171875 228.554688 325.996094 208.675781 L 329.011719 201.007812 C 331.492188 194.648438 333.492188 188.140625 335.011719 181.484375 C 336.53125 174.828125 337.554688 168.097656 338.082031 161.292969 C 338.605469 154.484375 338.628906 147.675781 338.148438 140.867188 C 337.667969 134.058594 336.691406 127.320312 335.214844 120.65625 Z M 295.199219 129.203125 C 294.816406 128.871094 294.503906 128.484375 294.261719 128.042969 C 294.015625 127.601562 293.851562 127.132812 293.769531 126.636719 C 293.6875 126.136719 293.6875 125.640625 293.777344 125.144531 C 293.867188 124.648438 294.039062 124.179688 294.289062 123.742188 C 294.652344 122.941406 294.976562 122.121094 295.257812 121.285156 C 295.535156 120.449219 295.773438 119.601562 295.96875 118.742188 C 296.160156 117.882812 296.308594 117.015625 296.414062 116.140625 C 296.519531 115.265625 296.578125 114.386719 296.59375 113.503906 C 296.609375 112.625 296.578125 111.746094 296.503906 110.867188 C 296.429688 109.988281 296.308594 109.117188 296.144531 108.25 C 295.980469 107.382812 295.773438 106.527344 295.523438 105.683594 C 295.269531 104.839844 294.976562 104.011719 294.640625 103.195312 C 294.304688 102.378906 293.929688 101.585938 293.511719 100.808594 C 293.09375 100.035156 292.636719 99.28125 292.140625 98.550781 C 291.648438 97.820312 291.117188 97.121094 290.550781 96.445312 C 289.984375 95.769531 289.386719 95.125 288.753906 94.511719 C 288.121094 93.894531 287.457031 93.316406 286.765625 92.769531 C 286.074219 92.222656 285.359375 91.714844 284.613281 91.242188 C 283.871094 90.769531 283.105469 90.335938 282.316406 89.9375 C 281.527344 89.542969 280.722656 89.191406 279.898438 88.878906 C 279.367188 88.742188 278.871094 88.519531 278.417969 88.207031 C 277.960938 87.898438 277.574219 87.519531 277.253906 87.070312 C 276.933594 86.625 276.695312 86.136719 276.546875 85.605469 C 276.398438 85.074219 276.34375 84.535156 276.382812 83.988281 C 276.34375 83.109375 276.265625 82.234375 276.148438 81.363281 C 276.027344 80.492188 275.867188 79.628906 275.667969 78.769531 C 275.46875 77.914062 275.226562 77.070312 274.949219 76.234375 C 274.671875 75.402344 274.351562 74.582031 274 73.777344 C 273.644531 72.972656 273.25 72.1875 272.824219 71.417969 C 272.394531 70.652344 271.929688 69.90625 271.433594 69.179688 C 270.9375 68.453125 270.40625 67.753906 269.84375 67.078125 C 269.277344 66.402344 268.6875 65.757812 268.0625 65.136719 C 267.4375 64.515625 266.789062 63.925781 266.109375 63.367188 C 265.429688 62.804688 264.726562 62.28125 264 61.785156 C 263.273438 61.292969 262.523438 60.832031 261.753906 60.40625 C 260.984375 59.984375 260.195312 59.597656 259.390625 59.246094 C 258.582031 58.894531 257.761719 58.582031 256.925781 58.308594 C 256.089844 58.03125 255.246094 57.796875 254.386719 57.601562 C 253.53125 57.40625 252.664062 57.25 251.792969 57.136719 C 250.921875 57.019531 250.046875 56.945312 249.167969 56.914062 C 248.351562 56.898438 247.566406 56.738281 246.808594 56.425781 C 246.054688 56.113281 245.386719 55.671875 244.796875 55.105469 C 237.964844 44.136719 230.546875 39.007812 221.523438 39.386719 C 219.0625 39.042969 216.625 39.167969 214.214844 39.761719 C 213.402344 40.050781 212.5 40.429688 212.5 40.429688 C 211.746094 40.757812 210.984375 41.191406 209.796875 41.855469 C 208.945312 42.335938 208.121094 42.859375 207.328125 43.429688 C 206.894531 43.714844 206.46875 44 206.042969 44.328125 L 205.949219 44.375 L 205.707031 44.617188 C 204.226562 45.851562 202.847656 47.195312 201.574219 48.648438 C 201.527344 48.695312 201.058594 49.265625 200.957031 49.367188 C 200.875 49.5 200.777344 49.628906 200.671875 49.746094 C 198.519531 53.164062 197.109375 56.867188 196.449219 60.855469 L 196.449219 63.707031 C 196.113281 63.984375 195.75 64.222656 195.359375 64.414062 C 189.207031 67.039062 182.9375 69.335938 176.546875 71.304688 C 175.726562 71.546875 174.890625 71.621094 174.042969 71.519531 C 173.191406 71.421875 172.394531 71.160156 171.652344 70.734375 C 167.953125 68.023438 164.339844 64.941406 160.921875 61.949219 L 158.683594 60.046875 C 158.339844 59.660156 157.957031 59.316406 157.539062 59.011719 C 157.117188 58.710938 156.667969 58.457031 156.191406 58.253906 C 155.714844 58.050781 155.222656 57.902344 154.710938 57.808594 C 154.203125 57.714844 153.6875 57.679688 153.171875 57.699219 C 152.652344 57.71875 152.144531 57.796875 151.644531 57.929688 C 151.144531 58.0625 150.664062 58.25 150.203125 58.488281 C 149.746094 58.730469 149.316406 59.019531 148.921875 59.351562 C 148.527344 59.6875 148.171875 60.0625 147.859375 60.476562 C 142.34375 66.082031 136.644531 71.773438 131.183594 77.242188 L 130.566406 77.808594 C 130.179688 78.113281 129.828125 78.457031 129.515625 78.839844 C 129.203125 79.222656 128.933594 79.636719 128.707031 80.074219 C 128.484375 80.515625 128.308594 80.976562 128.183594 81.453125 C 128.058594 81.929688 127.988281 82.417969 127.96875 82.910156 C 127.945312 83.40625 127.980469 83.894531 128.066406 84.382812 C 128.152344 84.867188 128.289062 85.339844 128.476562 85.796875 C 128.664062 86.253906 128.898438 86.6875 129.179688 87.09375 C 129.460938 87.5 129.78125 87.871094 130.144531 88.210938 L 133.273438 91.914062 C 136.082031 95.148438 138.972656 98.515625 141.492188 102.035156 C 141.953125 102.871094 142.230469 103.757812 142.332031 104.707031 C 142.429688 105.652344 142.339844 106.582031 142.0625 107.492188 C 141.269531 109.949219 140.351562 112.359375 139.3125 114.71875 C 138.457031 116.804688 137.546875 118.992188 136.835938 121.175781 C 135.886719 123.976562 134.746094 124.882812 132.085938 124.976562 C 128.144531 125.070312 124.207031 125.453125 120.359375 125.832031 C 118.460938 125.980469 116.601562 126.164062 114.707031 126.308594 C 114.1875 126.28125 113.675781 126.3125 113.164062 126.402344 C 112.652344 126.488281 112.15625 126.632812 111.675781 126.828125 C 111.195312 127.023438 110.742188 127.269531 110.316406 127.5625 C 109.890625 127.859375 109.5 128.195312 109.144531 128.578125 C 108.792969 128.957031 108.484375 129.371094 108.222656 129.820312 C 107.960938 130.265625 107.75 130.738281 107.589844 131.230469 C 107.429688 131.722656 107.324219 132.226562 107.277344 132.746094 C 107.226562 133.261719 107.234375 133.777344 107.296875 134.292969 C 107.34375 141.511719 107.34375 148.867188 107.296875 155.945312 L 107.296875 158.753906 C 107.234375 159.269531 107.230469 159.785156 107.28125 160.300781 C 107.332031 160.816406 107.441406 161.320312 107.605469 161.8125 C 107.769531 162.304688 107.984375 162.773438 108.253906 163.21875 C 108.519531 163.664062 108.832031 164.074219 109.191406 164.449219 C 109.550781 164.824219 109.949219 165.152344 110.378906 165.441406 C 110.8125 165.726562 111.273438 165.960938 111.757812 166.148438 C 112.242188 166.332031 112.742188 166.460938 113.253906 166.535156 C 113.769531 166.609375 114.285156 166.625 114.800781 166.585938 C 118.691406 166.773438 122.640625 167.160156 126.433594 167.492188 L 131.046875 167.914062 C 131.703125 167.867188 132.347656 167.9375 132.980469 168.125 C 133.609375 168.308594 134.1875 168.601562 134.714844 169 C 135.238281 169.398438 135.675781 169.878906 136.027344 170.4375 C 136.375 170.996094 136.617188 171.597656 136.746094 172.242188 C 137.859375 176.324219 139.492188 180.1875 141.644531 183.832031 C 141.898438 184.152344 142.117188 184.492188 142.300781 184.859375 C 142.484375 185.222656 142.628906 185.601562 142.738281 185.996094 C 142.84375 186.390625 142.910156 186.792969 142.933594 187.203125 C 142.960938 187.609375 142.941406 188.015625 142.886719 188.421875 C 142.828125 188.824219 142.730469 189.21875 142.589844 189.605469 C 142.453125 189.988281 142.277344 190.355469 142.0625 190.703125 C 141.847656 191.054688 141.601562 191.375 141.324219 191.675781 C 141.042969 191.972656 140.738281 192.238281 140.402344 192.476562 C 137.972656 194.90625 135.691406 197.472656 133.5625 200.171875 C 132.375 201.59375 131.242188 203.019531 130 204.398438 C 129.640625 204.734375 129.316406 205.109375 129.035156 205.515625 C 128.753906 205.921875 128.519531 206.351562 128.328125 206.808594 C 128.140625 207.265625 128 207.738281 127.910156 208.226562 C 127.820312 208.710938 127.785156 209.203125 127.800781 209.699219 C 127.816406 210.191406 127.882812 210.679688 128.003906 211.160156 C 128.125 211.640625 128.292969 212.101562 128.511719 212.546875 C 128.730469 212.988281 128.992188 213.40625 129.300781 213.792969 C 129.605469 214.183594 129.953125 214.53125 130.332031 214.847656 C 136.179688 220.875 142.207031 226.863281 148.429688 232.945312 C 148.738281 233.300781 149.078125 233.621094 149.453125 233.90625 C 149.828125 234.1875 150.230469 234.429688 150.65625 234.632812 C 151.082031 234.832031 151.523438 234.984375 151.984375 235.089844 C 152.441406 235.199219 152.90625 235.253906 153.375 235.265625 C 153.847656 235.273438 154.3125 235.234375 154.773438 235.144531 C 155.238281 235.054688 155.683594 234.917969 156.117188 234.734375 C 156.550781 234.550781 156.960938 234.320312 157.347656 234.050781 C 157.730469 233.78125 158.085938 233.472656 158.40625 233.128906 L 173.503906 220.5 C 175.214844 221.207031 176.828125 221.925781 178.496094 222.585938 C 183.386719 224.632812 191.558594 226.578125 196.113281 228.714844 C 196.238281 228.78125 196.347656 228.859375 196.449219 228.953125 L 196.449219 248.105469 C 196.53125 248.339844 196.640625 248.558594 196.777344 248.765625 C 199.871094 254.230469 207.558594 255.46875 212.214844 255.796875 C 213.332031 255.757812 214.390625 255.484375 215.386719 254.976562 C 216.382812 254.472656 217.226562 253.777344 217.914062 252.898438 C 219.855469 253.300781 221.816406 253.523438 223.800781 253.566406 C 225.78125 253.609375 227.75 253.46875 229.707031 253.148438 C 231.664062 252.828125 233.574219 252.332031 235.4375 251.660156 C 237.304688 250.988281 239.09375 250.152344 240.804688 249.148438 C 244.664062 246.945312 248.699219 245.136719 252.914062 243.730469 C 271.820312 237.609375 281.128906 227.0625 282.132812 210.625 C 282.171875 209.871094 282.742188 208.492188 285.117188 206.402344 C 292.53125 199.796875 300.554688 190.679688 297.039062 178.378906 C 296.597656 176.652344 296.320312 174.898438 296.21875 173.117188 C 296.113281 171.335938 296.183594 169.5625 296.421875 167.796875 C 296.664062 166.03125 297.070312 164.300781 297.648438 162.613281 C 298.222656 160.925781 298.957031 159.308594 299.847656 157.765625 C 300.382812 156.601562 300.828125 155.402344 301.1875 154.171875 C 301.542969 152.941406 301.808594 151.691406 301.980469 150.421875 C 302.152344 149.148438 302.226562 147.875 302.210938 146.59375 C 302.191406 145.3125 302.078125 144.039062 301.871094 142.773438 C 301.664062 141.507812 301.367188 140.265625 300.976562 139.046875 C 300.582031 137.824219 300.105469 136.640625 299.535156 135.492188 C 298.96875 134.339844 298.320312 133.242188 297.589844 132.1875 C 296.855469 131.136719 296.050781 130.140625 295.171875 129.210938 Z M 196.425781 181.070312 C 185.597656 173.664062 174.054688 160.789062 174.382812 146.019531 C 174.667969 131.769531 185.257812 119.085938 196.425781 111.683594 Z M 179.84375 208.097656 C 172.816406 204.351562 171.53125 204.203125 165.597656 209.617188 C 162.792969 212.1875 159.894531 214.609375 157.335938 216.792969 C 156.429688 217.554688 155.527344 218.316406 154.722656 219.023438 L 143.460938 209.195312 L 147.023438 205.0625 C 150.019531 201.546875 152.820312 198.222656 155.8125 194.992188 C 156.140625 194.648438 156.4375 194.28125 156.703125 193.886719 C 156.96875 193.492188 157.199219 193.078125 157.394531 192.644531 C 157.589844 192.214844 157.75 191.765625 157.871094 191.308594 C 157.992188 190.847656 158.074219 190.382812 158.117188 189.90625 C 158.160156 189.433594 158.164062 188.960938 158.125 188.488281 C 158.089844 188.011719 158.011719 187.546875 157.898438 187.085938 C 157.78125 186.625 157.628906 186.175781 157.4375 185.742188 C 157.246094 185.304688 157.023438 184.890625 156.761719 184.492188 C 153.679688 177.558594 150.730469 170.195312 147.835938 161.976562 C 147.636719 161.078125 147.296875 160.238281 146.816406 159.453125 C 146.332031 158.671875 145.738281 157.984375 145.027344 157.402344 C 144.316406 156.816406 143.53125 156.363281 142.671875 156.039062 C 141.808594 155.71875 140.917969 155.542969 140 155.519531 C 133.917969 155.191406 128.84375 154.804688 123.753906 154.144531 C 122.519531 153.957031 120.667969 152.621094 120.625 152.054688 C 120.378906 148.796875 120.296875 145.535156 120.386719 142.269531 C 120.433594 141.226562 120.433594 140.179688 120.433594 139.136719 L 126.277344 138.566406 C 131.074219 138.089844 135.628906 137.617188 140.140625 137.332031 C 141.058594 137.296875 141.941406 137.113281 142.796875 136.78125 C 143.648438 136.453125 144.425781 135.992188 145.128906 135.402344 C 145.828125 134.816406 146.414062 134.128906 146.886719 133.34375 C 147.359375 132.558594 147.691406 131.71875 147.882812 130.824219 C 150.78125 122.558594 153.636719 115.339844 156.671875 108.785156 C 157.171875 107.972656 157.535156 107.101562 157.75 106.167969 C 157.96875 105.238281 158.03125 104.296875 157.941406 103.34375 C 157.851562 102.394531 157.613281 101.480469 157.226562 100.609375 C 156.835938 99.734375 156.320312 98.945312 155.671875 98.242188 C 152.632812 94.820312 149.785156 91.304688 146.980469 87.882812 C 145.890625 86.605469 144.84375 85.273438 143.800781 84.039062 L 154.296875 73.542969 C 155.53125 74.585938 156.765625 75.585938 158 76.625 C 161.277344 79.289062 164.601562 82.089844 167.835938 84.9375 C 168.195312 85.28125 168.585938 85.59375 169 85.875 C 169.414062 86.152344 169.847656 86.390625 170.304688 86.59375 C 170.761719 86.796875 171.234375 86.957031 171.71875 87.074219 C 172.203125 87.195312 172.695312 87.269531 173.191406 87.300781 C 173.691406 87.335938 174.1875 87.324219 174.683594 87.269531 C 175.179688 87.214844 175.667969 87.117188 176.148438 86.976562 C 176.625 86.835938 177.089844 86.652344 177.535156 86.433594 C 177.984375 86.210938 178.40625 85.949219 178.808594 85.652344 C 183.410156 83.230469 191.25 81.042969 196.429688 79.050781 L 196.429688 96.625 C 177.433594 105.609375 160.566406 126.03125 161.28125 147.976562 C 162.042969 171.058594 179.765625 188.917969 196.429688 196.5625 L 196.429688 214.382812 C 190.777344 212.621094 185.246094 210.527344 179.84375 208.097656 Z M 283.628906 160.082031 C 278.828125 165.308594 264.53125 166.921875 259.734375 162.789062 C 258.980469 162.148438 258.414062 161.375 258.03125 160.460938 C 252.753906 145.691406 239.980469 141.886719 229.433594 140.277344 C 228.328125 140.003906 227.21875 139.957031 226.097656 140.136719 C 224.976562 140.316406 223.933594 140.710938 222.972656 141.316406 C 222.296875 141.878906 221.765625 142.550781 221.378906 143.339844 C 220.988281 144.125 220.777344 144.957031 220.742188 145.832031 C 220.128906 151.484375 224.492188 152.816406 227.863281 153.339844 C 235.800781 154.527344 240.738281 156.753906 243.398438 160.460938 C 244.097656 161.714844 244.671875 163.027344 245.109375 164.394531 C 245.550781 165.761719 245.851562 167.160156 246.007812 168.585938 C 246.167969 170.015625 246.183594 171.445312 246.054688 172.875 C 245.929688 174.304688 245.660156 175.710938 245.25 177.085938 C 245.25 177.132812 245.207031 177.183594 245.207031 177.222656 C 245.136719 177.359375 245.105469 177.503906 245.113281 177.65625 C 245 178.085938 244.929688 178.523438 244.90625 178.96875 C 244.878906 179.414062 244.898438 179.855469 244.960938 180.296875 C 245.023438 180.738281 245.128906 181.167969 245.277344 181.585938 C 245.421875 182.007812 245.609375 182.40625 245.839844 182.789062 C 246.066406 183.171875 246.328125 183.527344 246.625 183.859375 C 246.925781 184.191406 247.25 184.488281 247.609375 184.753906 C 247.964844 185.019531 248.34375 185.246094 248.746094 185.4375 C 249.148438 185.628906 249.566406 185.777344 250 185.882812 C 250.425781 186.035156 250.859375 186.140625 251.308594 186.199219 C 251.757812 186.257812 252.203125 186.265625 252.65625 186.226562 C 253.105469 186.1875 253.546875 186.101562 253.976562 185.96875 C 254.40625 185.835938 254.820312 185.65625 255.210938 185.433594 C 255.605469 185.210938 255.96875 184.949219 256.304688 184.644531 C 256.640625 184.34375 256.941406 184.011719 257.203125 183.644531 C 257.46875 183.277344 257.691406 182.886719 257.867188 182.472656 C 258.046875 182.058594 258.179688 181.628906 258.269531 181.1875 C 258.546875 180.234375 258.882812 179.328125 259.171875 178.425781 L 259.457031 177.570312 C 260.589844 177.671875 261.734375 177.8125 262.828125 177.910156 C 265.589844 178.234375 268.359375 178.378906 271.140625 178.335938 C 274.03125 178.164062 276.894531 177.800781 279.738281 177.238281 C 280.777344 177.054688 281.875 176.90625 282.96875 176.722656 C 283.308594 177.425781 283.585938 178.152344 283.800781 178.902344 C 284.015625 179.65625 284.160156 180.421875 284.238281 181.199219 C 284.316406 181.976562 284.328125 182.757812 284.269531 183.535156 C 284.210938 184.316406 284.085938 185.085938 283.890625 185.839844 C 283.695312 186.597656 283.4375 187.332031 283.113281 188.046875 C 282.789062 188.757812 282.40625 189.433594 281.960938 190.078125 C 281.519531 190.722656 281.023438 191.324219 280.472656 191.878906 C 279.925781 192.4375 279.332031 192.941406 278.691406 193.394531 C 278.554688 193.058594 278.40625 192.722656 278.269531 192.34375 C 277.792969 191.113281 277.273438 189.878906 276.746094 188.691406 C 276.378906 187.640625 275.816406 186.710938 275.054688 185.898438 C 274.296875 185.085938 273.402344 184.464844 272.378906 184.03125 C 271.519531 183.769531 270.644531 183.683594 269.753906 183.785156 C 268.859375 183.882812 268.023438 184.15625 267.246094 184.601562 C 266.808594 184.789062 266.398438 185.019531 266.011719 185.300781 C 265.625 185.578125 265.277344 185.894531 264.960938 186.25 C 264.644531 186.609375 264.375 186.996094 264.144531 187.410156 C 263.917969 187.828125 263.734375 188.265625 263.605469 188.722656 C 263.472656 189.179688 263.390625 189.644531 263.363281 190.117188 C 263.335938 190.59375 263.359375 191.066406 263.4375 191.535156 C 263.511719 192.003906 263.640625 192.457031 263.816406 192.898438 C 263.996094 193.339844 264.21875 193.757812 264.492188 194.148438 L 264.585938 194.34375 C 265.746094 196.6875 266.757812 199.09375 267.628906 201.5625 C 271.144531 212.011719 267.535156 222.792969 259.367188 226.261719 C 258.742188 225.457031 258.179688 224.601562 257.601562 223.742188 C 256.527344 221.640625 254.957031 220.011719 252.902344 218.851562 C 252.203125 218.546875 251.476562 218.386719 250.714844 218.375 C 250.050781 218.375 249.417969 218.515625 248.816406 218.800781 C 247.734375 219.515625 246.824219 220.410156 246.085938 221.476562 C 245.347656 222.542969 244.832031 223.710938 244.542969 224.972656 C 244.417969 225.300781 244.277344 225.617188 244.117188 225.921875 C 244.011719 226.066406 243.929688 226.226562 243.882812 226.398438 C 243.234375 227.898438 242.441406 229.316406 241.511719 230.660156 C 240.578125 232 239.523438 233.234375 238.34375 234.363281 C 237.164062 235.496094 235.886719 236.496094 234.507812 237.371094 C 233.128906 238.242188 231.675781 238.972656 230.148438 239.554688 C 228.597656 239.996094 227.019531 240.277344 225.414062 240.398438 C 223.804688 240.519531 222.203125 240.480469 220.605469 240.28125 C 219.003906 240.082031 217.441406 239.726562 215.914062 239.210938 C 214.386719 238.695312 212.925781 238.035156 211.53125 237.226562 C 210.90625 236.851562 210.382812 236.367188 209.960938 235.773438 C 209.539062 235.175781 209.253906 234.523438 209.109375 233.808594 C 208.917969 229.058594 208.917969 224.308594 208.964844 219.320312 C 208.964844 217.796875 209.011719 216.234375 209.011719 214.667969 C 209.820312 214.808594 210.585938 214.945312 211.339844 215.140625 C 213.382812 215.515625 215.289062 215.902344 217.230469 216.089844 C 228.445312 217.238281 236.324219 213.910156 241.453125 205.878906 C 241.761719 205.519531 242.027344 205.128906 242.25 204.707031 C 242.472656 204.289062 242.644531 203.851562 242.769531 203.390625 C 242.894531 202.933594 242.96875 202.46875 242.992188 201.992188 C 243.011719 201.519531 242.984375 201.046875 242.902344 200.582031 C 242.820312 200.113281 242.6875 199.660156 242.507812 199.222656 C 242.324219 198.78125 242.097656 198.371094 241.824219 197.980469 C 241.550781 197.59375 241.238281 197.238281 240.890625 196.917969 C 240.539062 196.597656 240.15625 196.320312 239.746094 196.085938 C 239.082031 195.554688 238.34375 195.175781 237.527344 194.953125 C 236.710938 194.730469 235.878906 194.679688 235.042969 194.804688 C 234.105469 195.046875 233.253906 195.472656 232.496094 196.074219 C 231.734375 196.675781 231.128906 197.40625 230.675781 198.265625 C 230.355469 198.757812 230 199.222656 229.605469 199.65625 C 229.210938 200.09375 228.785156 200.496094 228.324219 200.863281 C 227.867188 201.234375 227.382812 201.5625 226.875 201.855469 C 226.363281 202.144531 225.832031 202.394531 225.285156 202.605469 C 224.734375 202.8125 224.171875 202.976562 223.597656 203.09375 C 223.019531 203.214844 222.441406 203.289062 221.851562 203.316406 C 221.265625 203.34375 220.679688 203.324219 220.097656 203.257812 C 219.511719 203.191406 218.9375 203.082031 218.371094 202.925781 C 216.109375 202.523438 213.910156 201.910156 211.769531 201.082031 L 209.347656 200.230469 L 209.347656 184.226562 C 211.050781 183.894531 212.714844 183.609375 214.332031 183.320312 C 218.460938 182.5625 222.40625 181.851562 226.300781 180.847656 C 227.273438 180.65625 228.167969 180.273438 228.976562 179.703125 C 229.789062 179.132812 230.449219 178.421875 230.957031 177.570312 C 231.316406 176.808594 231.507812 176.003906 231.523438 175.160156 C 231.539062 174.316406 231.382812 173.503906 231.050781 172.726562 C 230.933594 172.242188 230.761719 171.78125 230.539062 171.335938 C 230.316406 170.894531 230.042969 170.480469 229.726562 170.097656 C 229.410156 169.714844 229.050781 169.371094 228.65625 169.070312 C 228.261719 168.769531 227.839844 168.515625 227.386719 168.308594 C 226.933594 168.101562 226.464844 167.949219 225.976562 167.851562 C 225.488281 167.753906 224.996094 167.710938 224.5 167.722656 C 224.003906 167.734375 223.515625 167.800781 223.03125 167.925781 C 222.550781 168.046875 222.089844 168.222656 221.648438 168.453125 C 219.035156 169.203125 216.375 169.664062 213.664062 169.824219 L 212.808594 169.875 C 212.296875 169.992188 211.78125 169.992188 211.269531 169.886719 C 210.753906 169.777344 210.285156 169.566406 209.863281 169.253906 C 209.460938 168.738281 209.175781 168.160156 209.007812 167.523438 C 208.84375 166.886719 208.8125 166.246094 208.914062 165.597656 C 209.101562 153.769531 209.101562 142.234375 208.914062 131.308594 C 208.828125 130.605469 208.894531 129.921875 209.109375 129.246094 C 209.328125 128.574219 209.671875 127.976562 210.148438 127.457031 C 210.535156 127.144531 210.972656 126.933594 211.453125 126.816406 C 211.9375 126.703125 212.421875 126.695312 212.90625 126.796875 C 217.996094 127.496094 222.949219 128.730469 227.769531 130.5 C 231.425781 131.828125 235.132812 132.445312 237.507812 128.316406 C 237.976562 127.582031 238.277344 126.789062 238.417969 125.929688 C 238.558594 125.070312 238.523438 124.21875 238.316406 123.375 C 237.921875 122.320312 237.335938 121.386719 236.5625 120.570312 C 235.789062 119.753906 234.882812 119.121094 233.851562 118.675781 C 232.035156 117.578125 230.136719 116.644531 228.160156 115.875 C 226.183594 115.105469 224.152344 114.515625 222.074219 114.097656 C 219.992188 113.679688 217.890625 113.445312 215.769531 113.390625 C 213.648438 113.339844 211.539062 113.46875 209.441406 113.78125 L 209.441406 101.195312 C 210.484375 101.285156 211.527344 101.378906 212.523438 101.476562 C 215.03125 101.820312 217.550781 101.980469 220.082031 101.949219 C 220.746094 101.992188 221.410156 101.980469 222.078125 101.914062 C 222.742188 101.851562 223.398438 101.734375 224.042969 101.566406 C 224.6875 101.398438 225.320312 101.183594 225.929688 100.917969 C 226.542969 100.652344 227.132812 100.339844 227.695312 99.980469 C 228.257812 99.625 228.789062 99.222656 229.292969 98.78125 C 229.792969 98.339844 230.253906 97.863281 230.679688 97.347656 C 231.105469 96.835938 231.488281 96.289062 231.828125 95.714844 C 232.167969 95.140625 232.464844 94.542969 232.710938 93.921875 C 232.894531 93.296875 233 92.660156 233.027344 92.011719 C 233.050781 91.359375 233 90.714844 232.867188 90.078125 C 232.734375 89.441406 232.527344 88.828125 232.246094 88.242188 C 231.960938 87.65625 231.613281 87.113281 231.195312 86.613281 C 229.617188 85.53125 227.875 85.058594 225.96875 85.1875 C 225.121094 85.125 224.375 85.378906 223.738281 85.945312 C 219.789062 90.265625 216.039062 89.03125 211.621094 87.5625 C 210.769531 87.320312 209.910156 87.035156 209.054688 86.757812 C 209.054688 84.523438 209.007812 82.238281 209.007812 80.007812 C 208.960938 74.40625 208.914062 69.132812 209.101562 63.71875 C 209.144531 63.046875 209.242188 62.382812 209.394531 61.726562 C 209.550781 61.070312 209.757812 60.433594 210.023438 59.8125 C 210.289062 59.195312 210.601562 58.601562 210.96875 58.035156 C 211.335938 57.46875 211.746094 56.941406 212.207031 56.445312 C 212.664062 55.953125 213.160156 55.5 213.695312 55.089844 C 214.230469 54.683594 214.796875 54.324219 215.394531 54.011719 C 215.992188 53.699219 216.613281 53.441406 217.257812 53.238281 C 217.898438 53.035156 218.554688 52.886719 219.21875 52.796875 C 219.855469 52.671875 220.496094 52.597656 221.144531 52.582031 C 221.789062 52.5625 222.433594 52.597656 223.074219 52.6875 C 223.714844 52.777344 224.34375 52.921875 224.960938 53.117188 C 225.578125 53.3125 226.175781 53.558594 226.75 53.851562 C 227.324219 54.148438 227.871094 54.488281 228.390625 54.875 C 228.910156 55.261719 229.394531 55.691406 229.839844 56.15625 C 230.285156 56.625 230.691406 57.128906 231.054688 57.664062 C 231.417969 58.199219 231.734375 58.761719 232.003906 59.351562 C 232.882812 62.1875 233.167969 65.085938 232.851562 68.042969 C 232.664062 71.273438 233.046875 74.742188 237.128906 76.074219 C 237.523438 76.21875 237.929688 76.324219 238.34375 76.390625 C 238.761719 76.460938 239.179688 76.488281 239.597656 76.472656 C 240.019531 76.460938 240.4375 76.410156 240.847656 76.316406 C 241.257812 76.222656 241.65625 76.09375 242.042969 75.921875 C 242.429688 75.753906 242.796875 75.550781 243.140625 75.3125 C 243.488281 75.070312 243.808594 74.800781 244.105469 74.5 C 244.398438 74.199219 244.664062 73.875 244.894531 73.523438 C 245.128906 73.171875 245.324219 72.800781 245.488281 72.410156 C 245.953125 71.773438 246.539062 71.273438 247.238281 70.90625 C 247.941406 70.539062 248.6875 70.347656 249.476562 70.328125 C 250.390625 70.386719 251.289062 70.53125 252.175781 70.761719 C 253.0625 70.988281 253.921875 71.296875 254.753906 71.679688 C 255.582031 72.066406 256.371094 72.527344 257.117188 73.058594 C 257.859375 73.589844 258.550781 74.183594 259.1875 74.84375 C 259.820312 75.503906 260.390625 76.214844 260.894531 76.980469 C 261.398438 77.742188 261.828125 78.546875 262.183594 79.390625 C 262.539062 80.234375 262.816406 81.105469 263.011719 82 C 263.207031 82.894531 263.316406 83.796875 263.34375 84.714844 C 263.375 85.21875 263.378906 85.722656 263.355469 86.226562 C 263.332031 86.730469 263.285156 87.230469 263.214844 87.730469 C 263.140625 88.230469 263.042969 88.726562 262.921875 89.214844 C 262.800781 89.703125 262.65625 90.1875 262.484375 90.664062 C 262.316406 91.136719 262.125 91.605469 261.90625 92.058594 C 261.691406 92.515625 261.453125 92.960938 261.191406 93.390625 C 260.933594 93.824219 260.652344 94.242188 260.347656 94.648438 C 260.046875 95.050781 259.722656 95.4375 259.382812 95.8125 C 259.042969 96.183594 258.683594 96.539062 258.308594 96.875 C 257.929688 97.210938 257.539062 97.527344 257.132812 97.824219 C 256.722656 98.121094 256.300781 98.398438 255.867188 98.652344 C 255.429688 98.90625 254.984375 99.140625 254.523438 99.351562 C 254.066406 99.5625 253.597656 99.746094 253.121094 99.910156 C 252.644531 100.074219 252.160156 100.214844 251.667969 100.332031 C 251.175781 100.445312 250.679688 100.535156 250.179688 100.601562 C 249.679688 100.667969 249.179688 100.710938 248.671875 100.726562 C 243.632812 101.386719 241.359375 103.664062 241.644531 107.707031 C 241.660156 108.585938 241.847656 109.425781 242.210938 110.226562 C 242.574219 111.027344 243.082031 111.722656 243.734375 112.3125 C 244.644531 112.972656 245.648438 113.433594 246.742188 113.699219 C 247.835938 113.960938 248.9375 114.007812 250.050781 113.835938 C 252.007812 113.746094 253.929688 113.441406 255.820312 112.925781 C 257.710938 112.410156 259.519531 111.691406 261.25 110.769531 C 262.980469 109.851562 264.585938 108.75 266.070312 107.472656 C 267.554688 106.195312 268.878906 104.769531 270.046875 103.195312 C 272.464844 99.871094 274.324219 100.199219 277.308594 102.144531 C 277.957031 102.546875 278.5625 103.003906 279.128906 103.511719 C 279.695312 104.019531 280.214844 104.574219 280.683594 105.171875 C 281.152344 105.769531 281.566406 106.40625 281.921875 107.078125 C 282.28125 107.75 282.578125 108.449219 282.8125 109.171875 C 283.046875 109.894531 283.21875 110.632812 283.324219 111.386719 C 283.429688 112.140625 283.46875 112.898438 283.441406 113.660156 C 283.414062 114.417969 283.320312 115.171875 283.160156 115.917969 C 283 116.660156 282.777344 117.386719 282.492188 118.089844 C 281.972656 119.554688 281.269531 120.921875 280.371094 122.1875 C 279.476562 123.457031 278.425781 124.578125 277.21875 125.558594 C 276.011719 126.535156 274.695312 127.328125 273.265625 127.941406 C 271.839844 128.554688 270.355469 128.960938 268.816406 129.160156 C 267.585938 129.183594 266.410156 129.445312 265.289062 129.945312 C 264.164062 130.449219 263.1875 131.152344 262.351562 132.058594 C 261.867188 132.757812 261.542969 133.523438 261.378906 134.355469 C 261.214844 135.191406 261.222656 136.023438 261.402344 136.851562 C 261.476562 137.78125 261.75 138.648438 262.214844 139.457031 C 262.683594 140.265625 263.300781 140.933594 264.066406 141.464844 C 265.109375 142.050781 266.222656 142.402344 267.414062 142.519531 C 268.605469 142.636719 269.765625 142.503906 270.902344 142.128906 C 274.183594 141.207031 277.398438 140.097656 280.550781 138.804688 C 281.832031 138.277344 283.15625 137.753906 284.492188 137.285156 C 285.75 138.242188 286.753906 139.417969 287.507812 140.808594 C 288.257812 142.199219 288.695312 143.683594 288.808594 145.257812 C 288.894531 146.605469 288.84375 147.945312 288.660156 149.28125 C 288.476562 150.617188 288.164062 151.921875 287.71875 153.195312 C 287.273438 154.46875 286.707031 155.683594 286.015625 156.84375 C 285.328125 158.003906 284.53125 159.082031 283.628906 160.082031 Z M 283.628906 160.082031 " fill-opacity="1" fill-rule="nonzero"/></svg>