<svg xmlns="http://www.w3.org/2000/svg" xmlns:xlink="http://www.w3.org/1999/xlink" width="500" zoomAndPan="magnify" viewBox="0 0 375 374.999991" height="500" preserveAspectRatio="xMidYMid meet" version="1.0"><defs><clipPath id="d2b5e027bd"><path d="M 50 71.484375 L 325 71.484375 L 325 157 L 50 157 Z M 50 71.484375 " clip-rule="nonzero"/></clipPath><clipPath id="94f602b2f1"><path d="M 6 263 L 67 263 L 67 303.234375 L 6 303.234375 Z M 6 263 " clip-rule="nonzero"/></clipPath><clipPath id="62176ee06a"><path d="M 308 263 L 369 263 L 369 303.234375 L 308 303.234375 Z M 308 263 " clip-rule="nonzero"/></clipPath></defs><g clip-path="url(#d2b5e027bd)"><path fill="#10b981" d="M 315.007812 156.074219 C 310.421875 142.671875 304.433594 129.699219 297.210938 117.515625 C 293.722656 111.632812 289.894531 105.847656 285.824219 100.324219 C 280.214844 92.707031 271.546875 87.683594 262.042969 86.535156 C 237.449219 83.574219 212.421875 82.066406 187.648438 82.054688 L 187.515625 82.054688 C 162.429688 82.054688 137.070312 83.597656 112.140625 86.640625 C 102.839844 87.78125 94.476562 92.558594 88.597656 100.105469 C 84.808594 104.960938 81.257812 110.089844 78.042969 115.339844 C 70.308594 127.953125 64.296875 141.574219 60.152344 155.839844 L 50.097656 152.917969 C 54.496094 137.761719 60.894531 123.273438 69.109375 109.871094 C 72.535156 104.277344 76.316406 98.835938 80.339844 93.671875 C 87.9375 83.914062 98.78125 77.726562 110.871094 76.253906 C 136.210938 73.160156 162 71.589844 187.507812 71.589844 L 187.640625 71.589844 C 212.824219 71.589844 238.269531 73.125 263.28125 76.140625 C 275.632812 77.628906 286.921875 84.179688 294.242188 94.117188 C 298.519531 99.921875 302.542969 105.996094 306.207031 112.175781 C 313.796875 124.972656 320.082031 138.605469 324.894531 152.683594 L 314.988281 156.074219 Z M 315.007812 156.074219 " fill-opacity="1" fill-rule="nonzero"/></g><path fill="#10b981" d="M 368.164062 254.277344 L 6.953125 254.277344 L 7.011719 191.355469 C 7.863281 185.765625 9.863281 180.496094 12.945312 175.710938 C 14.59375 173.160156 19.601562 165.394531 38.253906 155.75 C 38.886719 155.425781 39.542969 155.09375 40.226562 154.75 C 58.390625 145.703125 79.066406 140.925781 100.035156 140.925781 L 275 140.925781 C 294.855469 140.925781 314.488281 145.214844 331.792969 153.320312 C 334.222656 154.460938 336.394531 155.558594 338.324219 156.574219 C 353.75 164.734375 359.167969 171.082031 362.167969 175.703125 C 365.269531 180.496094 367.277344 185.765625 368.109375 191.375 L 368.171875 192.144531 L 368.171875 254.277344 Z M 17.417969 243.800781 L 357.6875 243.800781 L 357.6875 192.550781 C 357.039062 188.570312 355.582031 184.816406 353.367188 181.390625 C 351.0625 177.839844 346.710938 172.851562 333.414062 165.832031 C 331.625 164.882812 329.601562 163.859375 327.339844 162.796875 C 311.421875 155.339844 293.320312 151.394531 274.992188 151.394531 L 100.027344 151.394531 C 80.671875 151.394531 61.605469 155.792969 44.878906 164.121094 C 44.242188 164.4375 43.636719 164.742188 43.058594 165.050781 C 32.320312 170.609375 25.140625 176.097656 21.738281 181.382812 C 19.519531 184.816406 18.074219 188.570312 17.417969 192.550781 Z M 17.417969 243.800781 " fill-opacity="1" fill-rule="nonzero"/><path fill="#10b981" d="M 280.015625 254.277344 L 95.089844 254.277344 L 95.089844 246.746094 C 95.089844 230.328125 108.449219 216.96875 124.867188 216.96875 L 250.238281 216.96875 C 266.65625 216.96875 280.015625 230.328125 280.015625 246.746094 Z M 105.785156 243.800781 L 269.320312 243.800781 C 267.898438 234.546875 259.878906 227.4375 250.238281 227.4375 L 124.867188 227.4375 C 115.226562 227.4375 107.207031 234.546875 105.785156 243.800781 Z M 105.785156 243.800781 " fill-opacity="1" fill-rule="nonzero"/><path fill="#10b981" d="M 93.8125 212.902344 L 49.054688 212.902344 C 42.777344 212.902344 37.585938 209.246094 36.414062 204.007812 L 33.074219 189.085938 C 32.355469 185.859375 33.34375 182.566406 35.800781 180.050781 C 39.304688 176.4375 45.300781 174.824219 51.078125 175.945312 C 62.097656 178.085938 72.0625 180.101562 81.066406 181.925781 C 87.746094 183.273438 98.632812 185.484375 103.988281 192.609375 C 105.144531 194.144531 105.976562 195.820312 106.476562 197.582031 L 106.679688 198.28125 L 106.679688 201.917969 C 106.679688 208.082031 101.027344 212.910156 93.8125 212.910156 Z M 43.398438 187.246094 L 46.632812 201.71875 C 46.722656 201.796875 47.589844 202.429688 49.054688 202.429688 L 93.8125 202.429688 C 95.136719 202.429688 95.949219 201.9375 96.214844 201.664062 L 96.214844 199.867188 C 96.0625 199.535156 95.871094 199.203125 95.625 198.878906 C 92.664062 194.933594 83.878906 193.152344 79.164062 192.199219 C 70.011719 190.347656 60.082031 188.332031 49.089844 186.203125 C 46.265625 185.652344 44.082031 186.605469 43.398438 187.226562 Z M 43.398438 187.246094 " fill-opacity="1" fill-rule="nonzero"/><path fill="#10b981" d="M 326.050781 212.902344 L 281.292969 212.902344 C 274.078125 212.902344 268.425781 208.074219 268.425781 201.910156 L 268.425781 198.273438 L 268.628906 197.570312 C 269.125 195.800781 269.960938 194.125 271.117188 192.601562 C 276.472656 185.476562 287.359375 183.265625 293.871094 181.953125 L 294.214844 181.882812 C 303.183594 180.066406 313.085938 178.058594 324.035156 175.9375 C 329.804688 174.824219 335.800781 176.429688 339.316406 180.039062 C 341.769531 182.566406 342.757812 185.859375 342.039062 189.078125 L 338.699219 203.996094 C 337.527344 209.230469 332.328125 212.894531 326.0625 212.894531 Z M 278.890625 201.675781 C 279.15625 201.945312 279.96875 202.4375 281.292969 202.4375 L 326.050781 202.4375 C 327.515625 202.4375 328.382812 201.816406 328.515625 201.59375 L 331.707031 187.253906 C 331.023438 186.632812 328.847656 185.675781 326.015625 186.230469 C 315.09375 188.339844 305.214844 190.339844 296.273438 192.15625 L 295.941406 192.226562 C 291.214844 193.179688 282.441406 194.960938 279.46875 198.902344 C 279.226562 199.230469 279.03125 199.554688 278.882812 199.886719 L 278.882812 201.683594 Z M 278.890625 201.675781 " fill-opacity="1" fill-rule="nonzero"/><path fill="#10b981" d="M 368.164062 274.402344 L 6.953125 274.402344 L 6.953125 243.800781 L 368.164062 243.800781 Z M 17.417969 263.9375 L 357.6875 263.9375 L 357.6875 254.277344 L 17.417969 254.277344 Z M 17.417969 263.9375 " fill-opacity="1" fill-rule="nonzero"/><g clip-path="url(#94f602b2f1)"><path fill="#10b981" d="M 49.070312 303.480469 L 24.492188 303.480469 C 14.8125 303.480469 6.941406 295.609375 6.941406 285.929688 L 6.941406 263.929688 L 66.621094 263.929688 L 66.621094 285.929688 C 66.621094 295.609375 58.75 303.480469 49.070312 303.480469 Z M 17.417969 274.402344 L 17.417969 285.929688 C 17.417969 289.832031 20.589844 293.003906 24.492188 293.003906 L 49.070312 293.003906 C 52.972656 293.003906 56.144531 289.832031 56.144531 285.929688 L 56.144531 274.402344 Z M 17.417969 274.402344 " fill-opacity="1" fill-rule="nonzero"/></g><g clip-path="url(#62176ee06a)"><path fill="#10b981" d="M 350.613281 303.480469 L 326.035156 303.480469 C 316.355469 303.480469 308.484375 295.609375 308.484375 285.929688 L 308.484375 263.929688 L 368.164062 263.929688 L 368.164062 285.929688 C 368.164062 295.609375 360.289062 303.480469 350.613281 303.480469 Z M 318.960938 274.402344 L 318.960938 285.929688 C 318.960938 289.832031 322.132812 293.003906 326.035156 293.003906 L 350.613281 293.003906 C 354.515625 293.003906 357.6875 289.832031 357.6875 285.929688 L 357.6875 274.402344 Z M 318.960938 274.402344 " fill-opacity="1" fill-rule="nonzero"/></g><path fill="#10b981" d="M 61.949219 155.875 L 20.582031 155.875 C 9.257812 155.875 0.0351562 146.652344 0.0351562 135.324219 C 0.0351562 126.078125 7.554688 118.566406 16.796875 118.566406 L 38.289062 118.566406 C 51.332031 118.566406 61.949219 129.179688 61.949219 142.226562 L 61.949219 155.882812 Z M 16.804688 129.03125 C 13.332031 129.03125 10.511719 131.855469 10.511719 135.324219 C 10.511719 140.882812 15.035156 145.398438 20.582031 145.398438 L 51.472656 145.398438 L 51.472656 142.214844 C 51.472656 134.949219 45.554688 129.03125 38.289062 129.03125 L 16.796875 129.03125 Z M 16.804688 129.03125 " fill-opacity="1" fill-rule="nonzero"/><path fill="#10b981" d="M 354.523438 155.875 L 313.15625 155.875 L 313.15625 142.214844 C 313.15625 129.171875 323.773438 118.558594 336.816406 118.558594 L 358.308594 118.558594 C 367.558594 118.558594 375.078125 126.078125 375.078125 135.316406 C 375.078125 146.652344 365.855469 155.863281 354.53125 155.863281 Z M 323.625 145.398438 L 354.515625 145.398438 C 360.070312 145.398438 364.585938 140.875 364.585938 135.324219 C 364.585938 131.855469 361.761719 129.03125 358.292969 129.03125 L 336.796875 129.03125 C 329.53125 129.03125 323.613281 134.949219 323.613281 142.214844 L 323.613281 145.398438 Z M 323.625 145.398438 " fill-opacity="1" fill-rule="nonzero"/></svg>