<svg xmlns="http://www.w3.org/2000/svg" xmlns:xlink="http://www.w3.org/1999/xlink" width="500" zoomAndPan="magnify" viewBox="0 0 375 374.999991" height="500" preserveAspectRatio="xMidYMid meet" version="1.0"><defs><clipPath id="6bcee6887d"><path d="M 61.246094 0 L 313.996094 0 L 313.996094 375 L 61.246094 375 Z M 61.246094 0 " clip-rule="nonzero"/></clipPath></defs><path fill="#10b981" d="M 177.167969 156 C 169.226562 156 163.234375 167.671875 163.234375 183.140625 C 163.234375 198.605469 169.226562 210.277344 177.167969 210.277344 C 185.113281 210.277344 191.105469 198.605469 191.105469 183.140625 C 191.105469 167.671875 185.113281 156 177.167969 156 Z M 177.167969 205.410156 C 172.898438 205.410156 168.125 195.890625 168.125 183.148438 C 168.125 170.410156 172.898438 160.890625 177.167969 160.890625 C 181.4375 160.890625 186.214844 170.410156 186.214844 183.148438 C 186.214844 195.890625 181.4375 205.410156 177.167969 205.410156 Z M 177.167969 205.410156 " fill-opacity="1" fill-rule="nonzero"/><g clip-path="url(#6bcee6887d)"><path fill="#10b981" d="M 311.320312 30.1875 L 256.671875 30.1875 L 153.035156 0.214844 C 152.851562 0.160156 152.667969 0.128906 152.476562 0.121094 C 152.289062 0.109375 152.101562 0.125 151.914062 0.15625 C 151.726562 0.191406 151.546875 0.246094 151.371094 0.324219 C 151.199219 0.398438 151.035156 0.492188 150.886719 0.609375 C 150.734375 0.722656 150.597656 0.851562 150.476562 0.996094 C 150.355469 1.144531 150.25 1.300781 150.167969 1.46875 C 150.082031 1.640625 150.019531 1.816406 149.972656 2 C 149.929688 2.1875 149.910156 2.375 149.910156 2.5625 L 149.910156 30.1875 L 63.703125 30.1875 C 63.378906 30.1875 63.070312 30.25 62.769531 30.371094 C 62.46875 30.496094 62.207031 30.671875 61.976562 30.902344 C 61.746094 31.132812 61.570312 31.394531 61.445312 31.695312 C 61.324219 31.996094 61.261719 32.308594 61.257812 32.632812 L 61.257812 345.160156 C 61.257812 345.484375 61.320312 345.796875 61.445312 346.097656 C 61.570312 346.394531 61.746094 346.660156 61.976562 346.890625 C 62.207031 347.117188 62.46875 347.296875 62.769531 347.417969 C 63.070312 347.542969 63.378906 347.605469 63.703125 347.605469 L 149.910156 347.605469 L 149.910156 372.542969 C 149.910156 372.867188 149.972656 373.179688 150.097656 373.480469 C 150.21875 373.78125 150.398438 374.042969 150.625 374.273438 C 150.855469 374.503906 151.121094 374.679688 151.417969 374.804688 C 151.71875 374.925781 152.03125 374.988281 152.355469 374.988281 C 152.511719 374.988281 152.667969 374.976562 152.820312 374.945312 L 294.300781 347.605469 L 311.320312 347.605469 C 311.644531 347.605469 311.953125 347.542969 312.253906 347.417969 C 312.554688 347.296875 312.820312 347.117188 313.046875 346.890625 C 313.277344 346.660156 313.453125 346.394531 313.578125 346.097656 C 313.703125 345.796875 313.765625 345.484375 313.765625 345.160156 L 313.765625 32.632812 C 313.761719 32.308594 313.703125 31.996094 313.578125 31.695312 C 313.453125 31.394531 313.277344 31.132812 313.046875 30.902344 C 312.816406 30.671875 312.554688 30.496094 312.253906 30.371094 C 311.953125 30.25 311.644531 30.1875 311.320312 30.1875 Z M 66.148438 35.078125 L 149.910156 35.078125 L 149.910156 50.863281 L 80.941406 50.863281 C 80.617188 50.863281 80.304688 50.925781 80.007812 51.050781 C 79.707031 51.175781 79.441406 51.351562 79.210938 51.582031 C 78.984375 51.808594 78.804688 52.074219 78.683594 52.375 C 78.558594 52.675781 78.496094 52.984375 78.496094 53.308594 L 78.496094 342.714844 L 66.148438 342.714844 Z M 83.386719 342.714844 L 83.386719 55.753906 L 149.910156 55.753906 L 149.910156 342.730469 Z M 154.800781 345.160156 L 154.800781 5.816406 L 291.621094 45.382812 L 291.621094 343.132812 L 154.800781 369.570312 Z M 308.875 342.714844 L 296.53125 342.714844 L 296.53125 53.308594 C 296.527344 53.21875 296.523438 53.132812 296.511719 53.042969 L 296.511719 43.546875 C 296.511719 43.28125 296.46875 43.023438 296.386719 42.769531 C 296.300781 42.519531 296.179688 42.289062 296.019531 42.074219 C 295.863281 41.863281 295.671875 41.683594 295.453125 41.53125 C 295.238281 41.382812 295 41.269531 294.746094 41.199219 L 273.585938 35.078125 L 308.875 35.078125 Z M 308.875 342.714844 " fill-opacity="1" fill-rule="nonzero"/></g></svg>