<svg xmlns="http://www.w3.org/2000/svg" xmlns:xlink="http://www.w3.org/1999/xlink" width="500" zoomAndPan="magnify" viewBox="0 0 375 374.999991" height="500" preserveAspectRatio="xMidYMid meet" version="1.0"><defs><clipPath id="f23ec93333"><path d="M 104 264 L 271 264 L 271 341.335938 L 104 341.335938 Z M 104 264 " clip-rule="nonzero"/></clipPath><clipPath id="94654eaf6c"><path d="M 85 20.335938 L 290 20.335938 L 290 297 L 85 297 Z M 85 20.335938 " clip-rule="nonzero"/></clipPath></defs><g clip-path="url(#f23ec93333)"><path fill="#10b981" d="M 136.6875 282.722656 C 137.804688 282.152344 138.960938 281.609375 140.140625 281.089844 C 144.410156 279.222656 146.355469 274.242188 144.488281 269.972656 C 142.617188 265.707031 137.632812 263.769531 133.371094 265.632812 C 131.890625 266.28125 130.453125 266.960938 129.019531 267.6875 C 113.183594 275.804688 104.453125 286.636719 104.453125 298.191406 C 104.453125 309.808594 113.183594 320.652344 129.035156 328.734375 C 144.589844 336.65625 165.289062 341.019531 187.316406 341.019531 C 209.351562 341.019531 230.046875 336.65625 245.597656 328.734375 C 261.445312 320.648438 270.175781 309.804688 270.175781 298.191406 C 270.175781 286.640625 261.449219 275.808594 245.597656 267.679688 C 243.96875 266.847656 242.273438 266.058594 240.539062 265.308594 C 236.253906 263.472656 231.292969 265.441406 229.453125 269.71875 C 227.609375 274 229.582031 278.96875 233.863281 280.804688 C 235.261719 281.414062 236.617188 282.046875 237.910156 282.703125 C 249.269531 288.523438 253.300781 294.679688 253.300781 298.1875 C 253.300781 301.726562 249.273438 307.910156 237.933594 313.695312 C 224.710938 320.4375 206.734375 324.140625 187.316406 324.140625 C 167.902344 324.140625 149.925781 320.4375 136.703125 313.695312 C 125.355469 307.914062 121.335938 301.730469 121.335938 298.1875 C 121.332031 294.683594 125.359375 288.527344 136.6875 282.722656 Z M 136.6875 282.722656 " fill-opacity="1" fill-rule="nonzero"/></g><g clip-path="url(#94654eaf6c)"><path fill="#10b981" d="M 188.433594 20.363281 C 188.203125 20.347656 187.976562 20.335938 187.746094 20.335938 L 186.894531 20.335938 C 186.660156 20.335938 186.433594 20.347656 186.210938 20.363281 C 130.605469 21.183594 85.480469 66.929688 85.480469 122.472656 C 84.601562 177.730469 126.886719 228.304688 157.761719 265.226562 C 166.816406 276.054688 174.636719 285.410156 179.925781 293.15625 C 181.496094 295.457031 184.105469 296.835938 186.898438 296.835938 L 187.75 296.835938 C 190.539062 296.835938 193.148438 295.457031 194.722656 293.15625 C 200.003906 285.40625 207.832031 276.054688 216.882812 265.222656 C 247.753906 228.300781 290.035156 177.722656 289.164062 122.605469 C 289.160156 66.933594 244.027344 21.191406 188.433594 20.363281 Z M 203.933594 254.394531 C 197.730469 261.816406 192.089844 268.558594 187.316406 274.71875 C 182.542969 268.558594 176.90625 261.816406 170.707031 254.398438 C 141.53125 219.507812 101.578125 171.71875 102.355469 122.605469 C 102.355469 75.949219 140.308594 37.652344 186.96875 37.234375 C 187.085938 37.234375 187.199219 37.230469 187.316406 37.222656 C 187.433594 37.230469 187.546875 37.234375 187.667969 37.234375 C 234.320312 37.652344 272.28125 75.949219 272.28125 122.738281 C 273.058594 171.71875 233.105469 219.503906 203.933594 254.394531 Z M 203.933594 254.394531 " fill-opacity="1" fill-rule="nonzero"/></g><path fill="#10b981" d="M 187.316406 85.320312 C 166.695312 85.546875 150.023438 102.148438 150.023438 122.621094 C 150.023438 143.089844 166.675781 159.691406 187.316406 159.914062 C 207.960938 159.691406 224.613281 143.089844 224.613281 122.621094 C 224.613281 102.148438 207.941406 85.546875 187.316406 85.320312 Z M 187.316406 85.320312 " fill-opacity="1" fill-rule="nonzero"/></svg>