<svg xmlns="http://www.w3.org/2000/svg" xmlns:xlink="http://www.w3.org/1999/xlink" width="500" zoomAndPan="magnify" viewBox="0 0 375 374.999991" height="500" preserveAspectRatio="xMidYMid meet" version="1.0"><defs><clipPath id="4bd3f80c43"><path d="M 8.90625 0 L 365.90625 0 L 365.90625 375 L 8.90625 375 Z M 8.90625 0 " clip-rule="nonzero"/></clipPath><clipPath id="56698b762b"><path d="M 9 11 L 365.90625 11 L 365.90625 365 L 9 365 Z M 9 11 " clip-rule="nonzero"/></clipPath></defs><g clip-path="url(#4bd3f80c43)"><path fill="#ffffff" d="M 8.90625 0 L 365.90625 0 L 365.90625 375 L 8.90625 375 Z M 8.90625 0 " fill-opacity="1" fill-rule="nonzero"/></g><g clip-path="url(#56698b762b)"><path fill="#10b981" d="M 218.691406 13.777344 C 141.25 0.222656 66.480469 39.679688 31.28125 106.148438 L 69.398438 138.734375 C 92.4375 84.613281 150.144531 51.371094 210.0625 61.859375 C 261.363281 70.839844 285.828125 106.644531 285.828125 106.644531 L 249.570312 130.160156 L 365.4375 198.933594 L 365.4375 57.441406 L 328.507812 80.441406 C 302.667969 46.402344 264.042969 21.71875 218.691406 13.777344 Z M 156.308594 361.667969 C 233.75 375.222656 308.519531 335.765625 343.71875 269.296875 L 305.601562 236.710938 C 282.5625 290.828125 224.855469 324.074219 164.9375 313.585938 C 113.636719 304.605469 89.171875 268.800781 89.171875 268.800781 L 125.429688 245.28125 L 9.5625 176.511719 L 9.5625 318.003906 L 46.492188 295 C 72.332031 329.042969 110.957031 353.726562 156.308594 361.667969 Z M 156.308594 361.667969 " fill-opacity="1" fill-rule="nonzero"/></g></svg>