<svg xmlns="http://www.w3.org/2000/svg" xmlns:xlink="http://www.w3.org/1999/xlink" width="500" zoomAndPan="magnify" viewBox="0 0 375 374.999991" height="500" preserveAspectRatio="xMidYMid meet" version="1.0"><path fill="#10b981" d="M 187.5 375 C 162.210938 375 137.652344 370.0625 114.511719 360.273438 C 92.195312 350.808594 72.117188 337.316406 54.921875 320.078125 C 37.683594 302.835938 24.191406 282.804688 14.726562 260.488281 C 4.9375 237.347656 0 212.789062 0 187.5 C 0 162.210938 4.9375 137.652344 14.726562 114.511719 C 24.191406 92.195312 37.683594 72.117188 54.921875 54.921875 C 72.164062 37.683594 92.195312 24.191406 114.511719 14.726562 C 137.652344 4.9375 162.210938 0 187.5 0 C 212.789062 0 237.347656 4.9375 260.488281 14.726562 C 282.804688 24.191406 302.882812 37.683594 320.078125 54.921875 C 337.316406 72.164062 350.808594 92.195312 360.273438 114.511719 C 370.0625 137.652344 375 162.210938 375 187.5 C 375 212.789062 370.0625 237.347656 360.273438 260.488281 C 350.808594 282.804688 337.316406 302.882812 320.078125 320.078125 C 302.835938 337.269531 282.804688 350.808594 260.488281 360.273438 C 237.347656 370.0625 212.789062 375 187.5 375 Z M 187.5 9.144531 C 163.398438 9.144531 140.078125 13.855469 118.078125 23.140625 C 96.859375 32.105469 77.789062 45 61.371094 61.371094 C 45 77.742188 32.148438 96.8125 23.140625 118.078125 C 13.855469 140.078125 9.144531 163.398438 9.144531 187.5 C 9.144531 211.601562 13.855469 234.921875 23.140625 256.921875 C 32.105469 278.140625 45 297.210938 61.371094 313.628906 C 77.742188 330 96.8125 342.851562 118.078125 351.859375 C 140.078125 361.144531 163.398438 365.855469 187.5 365.855469 C 211.601562 365.855469 234.921875 361.144531 256.921875 351.859375 C 278.140625 342.894531 297.210938 330 313.628906 313.628906 C 330.046875 297.257812 342.851562 278.1875 351.859375 256.921875 C 361.144531 234.921875 365.855469 211.601562 365.855469 187.5 C 365.855469 163.398438 361.144531 140.078125 351.859375 118.078125 C 342.894531 96.859375 330 77.789062 313.628906 61.371094 C 297.257812 45 278.1875 32.148438 256.921875 23.140625 C 234.921875 13.855469 211.601562 9.144531 187.5 9.144531 Z M 187.5 9.144531 " fill-opacity="1" fill-rule="nonzero"/><path fill="#10b981" d="M 187.5 336.035156 C 147.804688 336.035156 110.535156 320.578125 82.453125 292.546875 C 54.421875 264.464844 38.964844 227.195312 38.964844 187.5 C 38.964844 147.804688 54.421875 110.535156 82.453125 82.453125 C 110.535156 54.375 147.804688 38.964844 187.5 38.964844 C 227.195312 38.964844 264.464844 54.421875 292.546875 82.453125 C 320.625 110.535156 336.035156 147.804688 336.035156 187.5 C 336.035156 227.195312 320.578125 264.464844 292.546875 292.546875 C 264.464844 320.578125 227.195312 336.035156 187.5 336.035156 Z M 187.5 48.109375 C 150.273438 48.109375 115.242188 62.605469 88.902344 88.949219 C 62.605469 115.242188 48.109375 150.273438 48.109375 187.5 C 48.109375 224.726562 62.605469 259.757812 88.949219 286.097656 C 115.289062 312.4375 150.273438 326.9375 187.546875 326.9375 C 224.769531 326.9375 259.800781 312.4375 286.144531 286.097656 C 312.484375 259.757812 326.980469 224.769531 326.980469 187.5 C 326.980469 150.273438 312.484375 115.242188 286.144531 88.902344 C 259.757812 62.605469 224.726562 48.109375 187.5 48.109375 Z M 187.5 48.109375 " fill-opacity="1" fill-rule="nonzero"/><path fill="#10b981" d="M 151.644531 296.066406 C 144.144531 296.066406 138.019531 289.9375 138.019531 282.4375 L 138.019531 168.382812 C 133.171875 167.105469 128.734375 164.40625 125.257812 160.609375 C 120.824219 155.714844 118.355469 149.40625 118.355469 142.867188 L 118.355469 139.800781 C 118.355469 139.617188 118.355469 139.480469 118.355469 139.34375 C 118.355469 139.117188 118.355469 138.886719 118.355469 138.75 L 118.355469 88.582031 C 118.355469 83.230469 122.699219 78.933594 128.003906 78.933594 L 128.917969 78.933594 C 134.269531 78.933594 138.566406 83.277344 138.566406 88.582031 L 138.566406 127.589844 L 141.539062 127.589844 L 141.539062 89.039062 C 141.539062 83.460938 146.066406 78.886719 151.691406 78.886719 C 157.269531 78.886719 161.84375 83.414062 161.84375 89.039062 L 161.84375 127.589844 L 164.816406 127.589844 L 164.816406 88.582031 C 164.816406 83.230469 169.160156 78.933594 174.464844 78.933594 L 175.382812 78.933594 C 180.730469 78.933594 185.03125 83.277344 185.03125 88.582031 L 185.121094 138.703125 C 185.121094 138.886719 185.121094 139.023438 185.121094 139.160156 C 185.121094 139.390625 185.121094 139.617188 185.121094 139.757812 L 185.121094 142.820312 C 185.121094 154.984375 176.660156 165.503906 165.183594 168.429688 L 165.183594 282.4375 C 165.273438 289.9375 159.144531 296.066406 151.644531 296.066406 Z M 127.546875 140.03125 L 127.546875 142.867188 C 127.546875 151.601562 134.359375 159.144531 143.09375 160.015625 C 145.425781 160.242188 147.210938 162.210938 147.210938 164.542969 L 147.210938 282.4375 C 147.210938 284.910156 149.222656 286.921875 151.691406 286.921875 C 154.160156 286.921875 156.171875 284.910156 156.171875 282.4375 L 156.171875 164.589844 C 156.171875 162.210938 158.003906 160.242188 160.335938 160.015625 C 169.160156 159.238281 176.113281 151.691406 176.113281 142.820312 L 176.113281 139.9375 C 176.066406 139.710938 176.066406 139.480469 176.066406 139.253906 C 176.066406 138.933594 176.113281 138.703125 176.113281 138.519531 L 176.019531 88.628906 C 176.019531 88.355469 175.792969 88.078125 175.519531 88.078125 L 174.605469 88.078125 C 174.328125 88.078125 174.101562 88.308594 174.101562 88.582031 L 174.101562 132.164062 C 174.101562 134.679688 172.042969 136.738281 169.527344 136.738281 L 157.316406 136.738281 C 154.800781 136.738281 152.742188 134.679688 152.742188 132.164062 L 152.742188 89.039062 C 152.742188 88.492188 152.285156 88.035156 151.738281 88.035156 C 151.1875 88.035156 150.730469 88.492188 150.730469 89.039062 L 150.730469 132.164062 C 150.730469 134.679688 148.671875 136.738281 146.160156 136.738281 L 134.039062 136.738281 C 131.523438 136.738281 129.464844 134.679688 129.464844 132.164062 L 129.464844 88.582031 C 129.464844 88.308594 129.238281 88.078125 128.964844 88.078125 L 128.046875 88.078125 C 127.773438 88.078125 127.546875 88.308594 127.546875 88.582031 L 127.546875 138.566406 C 127.589844 138.796875 127.589844 139.023438 127.589844 139.253906 C 127.589844 139.574219 127.546875 139.847656 127.546875 140.03125 Z M 176.160156 140.394531 Z M 127.453125 138.15625 Z M 127.453125 138.15625 " fill-opacity="1" fill-rule="nonzero"/><path fill="#10b981" d="M 223.902344 296.066406 C 216.402344 296.066406 210.273438 289.9375 210.273438 282.4375 L 210.273438 174.96875 C 198.15625 167.148438 190.199219 149.132812 190.199219 129.054688 C 190.199219 116.019531 193.492188 103.71875 199.4375 94.390625 C 205.792969 84.421875 214.4375 78.933594 223.855469 78.933594 C 233.277344 78.933594 241.921875 84.421875 248.277344 94.390625 C 254.222656 103.71875 257.515625 116.019531 257.515625 129.054688 C 257.515625 149.085938 249.605469 167.058594 237.578125 174.921875 L 237.578125 282.484375 C 237.53125 289.9375 231.449219 296.066406 223.902344 296.066406 Z M 223.855469 88.078125 C 210.59375 88.078125 199.390625 106.828125 199.390625 129.054688 C 199.390625 146.890625 206.617188 163.035156 216.953125 168.292969 C 218.507812 169.070312 219.464844 170.625 219.464844 172.363281 L 219.464844 282.484375 C 219.464844 284.953125 221.480469 286.964844 223.949219 286.964844 C 226.417969 286.964844 228.429688 284.953125 228.429688 282.484375 L 228.429688 172.269531 C 228.429688 170.578125 229.390625 168.980469 230.898438 168.203125 C 241.1875 162.894531 248.367188 146.753906 248.367188 129.007812 C 248.324219 106.828125 237.117188 88.078125 223.855469 88.078125 Z M 223.855469 88.078125 " fill-opacity="1" fill-rule="nonzero"/><path fill="#10b981" d="M 228.660156 95.257812 C 227.882812 94.710938 226.921875 94.480469 225.960938 94.664062 C 225 94.847656 224.132812 95.394531 223.582031 96.171875 C 223.035156 96.953125 222.804688 97.910156 222.988281 98.871094 C 223.171875 99.832031 223.71875 100.703125 224.542969 101.25 C 229.296875 104.496094 235.015625 112.316406 235.199219 131.25 C 235.199219 132.210938 235.5625 133.125 236.25 133.8125 C 236.9375 134.496094 237.804688 134.863281 238.8125 134.863281 C 238.855469 134.863281 238.855469 134.863281 238.902344 134.863281 L 239.039062 134.863281 C 240.960938 134.769531 242.46875 133.214844 242.5625 131.203125 C 242.332031 113.734375 237.53125 101.296875 228.660156 95.257812 Z M 228.660156 95.257812 " fill-opacity="1" fill-rule="nonzero"/><path fill="#10b981" d="M 242.699219 141.265625 C 242.699219 141.71875 242.609375 142.15625 242.4375 142.578125 C 242.261719 142.996094 242.015625 143.367188 241.695312 143.691406 C 241.371094 144.011719 241 144.261719 240.582031 144.433594 C 240.160156 144.609375 239.722656 144.695312 239.269531 144.695312 C 238.8125 144.695312 238.375 144.609375 237.957031 144.433594 C 237.535156 144.261719 237.164062 144.011719 236.84375 143.691406 C 236.519531 143.367188 236.273438 142.996094 236.097656 142.578125 C 235.925781 142.15625 235.839844 141.71875 235.839844 141.265625 C 235.839844 140.808594 235.925781 140.371094 236.097656 139.953125 C 236.273438 139.53125 236.519531 139.160156 236.84375 138.839844 C 237.164062 138.519531 237.535156 138.269531 237.957031 138.097656 C 238.375 137.921875 238.8125 137.835938 239.269531 137.835938 C 239.722656 137.835938 240.160156 137.921875 240.582031 138.097656 C 241 138.269531 241.371094 138.519531 241.695312 138.839844 C 242.015625 139.160156 242.261719 139.53125 242.4375 139.953125 C 242.609375 140.371094 242.699219 140.808594 242.699219 141.265625 Z M 242.699219 141.265625 " fill-opacity="1" fill-rule="nonzero"/><path fill="#10b981" d="M 239.269531 145.609375 C 238.171875 145.609375 237.164062 145.199219 236.339844 144.464844 C 235.472656 143.6875 234.96875 142.589844 234.921875 141.449219 C 234.878906 140.304688 235.289062 139.160156 236.066406 138.292969 C 236.84375 137.421875 237.941406 136.921875 239.085938 136.875 C 240.230469 136.828125 241.371094 137.242188 242.242188 138.019531 C 243.109375 138.796875 243.613281 139.894531 243.660156 141.035156 C 243.703125 142.179688 243.292969 143.324219 242.515625 144.191406 C 241.738281 145.0625 240.640625 145.5625 239.496094 145.609375 C 239.40625 145.609375 239.3125 145.609375 239.269531 145.609375 Z M 239.269531 138.703125 C 239.222656 138.703125 239.175781 138.703125 239.132812 138.703125 C 238.445312 138.75 237.851562 139.023438 237.394531 139.527344 C 236.9375 140.03125 236.707031 140.671875 236.753906 141.355469 C 236.796875 142.042969 237.074219 142.636719 237.578125 143.09375 C 238.078125 143.550781 238.71875 143.78125 239.40625 143.734375 C 240.089844 143.6875 240.6875 143.414062 241.144531 142.910156 C 241.601562 142.410156 241.828125 141.769531 241.785156 141.082031 C 241.738281 140.394531 241.464844 139.800781 240.960938 139.34375 C 240.503906 138.980469 239.910156 138.703125 239.269531 138.703125 Z M 239.269531 138.703125 " fill-opacity="1" fill-rule="nonzero"/></svg>