<svg xmlns="http://www.w3.org/2000/svg" xmlns:xlink="http://www.w3.org/1999/xlink" width="500" zoomAndPan="magnify" viewBox="0 0 375 374.999991" height="500" preserveAspectRatio="xMidYMid meet" version="1.0"><defs><clipPath id="779f3b0986"><path d="M 0 1.703125 L 375 1.703125 L 375 372.953125 L 0 372.953125 Z M 0 1.703125 " clip-rule="nonzero"/></clipPath></defs><g clip-path="url(#779f3b0986)"><path fill="#10b981" d="M 374.804688 366.574219 L 362.125 174.632812 C 362.117188 171.296875 359.417969 168.597656 356.082031 168.597656 L 326.6875 168.597656 L 326.6875 161.554688 C 326.6875 151.441406 322.21875 142.289062 315.019531 135.671875 C 312.960938 133.78125 310.664062 132.101562 308.199219 130.667969 L 304.554688 75.449219 C 304.542969 72.113281 301.847656 69.414062 298.511719 69.414062 L 246.121094 69.425781 L 246.121094 55.539062 C 246.121094 40.714844 239.550781 27.257812 228.964844 17.53125 C 218.507812 7.925781 204.121094 1.96875 188.34375 1.96875 C 179.976562 1.96875 172.011719 3.652344 164.8125 6.660156 C 157.609375 3.652344 149.644531 1.96875 141.277344 1.96875 C 125.496094 1.96875 111.113281 7.925781 100.664062 17.53125 C 90.085938 27.257812 83.507812 40.714844 83.507812 55.539062 L 83.507812 69.441406 L 72.105469 69.441406 C 71.945312 69.433594 71.785156 69.414062 71.625 69.414062 L 34.753906 69.433594 C 31.691406 69.433594 29.066406 71.757812 28.757812 74.867188 L 0.0273438 366.359375 L 0 366.996094 C 0.0273438 370.324219 2.746094 372.992188 6.0625 372.964844 L 87.648438 372.046875 C 88.585938 372.636719 89.691406 372.992188 90.882812 372.992188 L 219.105469 372.992188 L 369.152344 372.964844 C 372.480469 372.761719 375.007812 369.890625 374.804688 366.574219 Z M 314.589844 161.554688 L 314.589844 168.597656 L 310.691406 168.597656 L 309.277344 147.113281 C 312.613281 151.160156 314.589844 156.164062 314.589844 161.554688 Z M 248.5 168.597656 L 221.964844 168.597656 L 221.964844 161.542969 C 221.964844 154.957031 224.933594 148.929688 229.714844 144.535156 C 234.625 140.03125 241.445312 137.21875 248.96875 137.21875 C 251.929688 137.21875 254.769531 137.660156 257.429688 138.457031 C 251.855469 144.742188 248.5 152.792969 248.5 161.535156 Z M 260.589844 161.554688 C 260.589844 154.984375 263.53125 148.988281 268.273438 144.601562 C 273.011719 148.988281 275.957031 154.984375 275.957031 161.554688 L 275.957031 168.597656 L 260.578125 168.597656 L 260.578125 161.554688 Z M 279.121094 138.464844 C 281.785156 137.667969 284.632812 137.226562 287.59375 137.226562 C 290.761719 137.226562 293.804688 137.734375 296.625 138.640625 L 298.605469 168.597656 L 288.054688 168.597656 L 288.054688 161.554688 C 288.054688 152.800781 284.699219 144.761719 279.121094 138.464844 Z M 188.34375 14.054688 C 201.011719 14.054688 212.492188 18.785156 220.792969 26.40625 C 228.953125 33.902344 234.023438 44.21875 234.023438 55.539062 L 234.023438 69.425781 L 199.054688 69.425781 L 199.054688 55.539062 C 199.054688 40.714844 192.484375 27.257812 181.898438 17.53125 C 180.921875 16.640625 179.910156 15.789062 178.871094 14.964844 C 181.925781 14.375 185.09375 14.054688 188.34375 14.054688 Z M 142.664062 69.433594 L 142.664062 55.539062 C 142.664062 44.226562 147.730469 33.910156 155.894531 26.40625 C 158.554688 23.960938 161.554688 21.8125 164.8125 20.023438 C 168.066406 21.8125 171.0625 23.960938 173.734375 26.40625 C 181.898438 33.910156 186.964844 44.21875 186.964844 55.539062 L 186.964844 69.433594 Z M 95.597656 55.539062 C 95.597656 44.226562 100.664062 33.910156 108.828125 26.40625 C 117.121094 18.785156 128.609375 14.054688 141.277344 14.054688 C 144.527344 14.054688 147.695312 14.375 150.75 14.964844 C 149.710938 15.789062 148.699219 16.640625 147.722656 17.53125 C 137.144531 27.257812 130.566406 40.714844 130.566406 55.539062 L 130.566406 69.433594 L 95.597656 69.433594 Z M 130.574219 81.503906 L 130.574219 113.585938 C 130.574219 116.921875 133.285156 119.628906 136.621094 119.628906 C 139.953125 119.628906 142.664062 116.921875 142.664062 113.585938 L 142.664062 81.503906 L 234.023438 81.503906 L 234.023438 113.585938 C 234.023438 116.921875 236.730469 119.628906 240.066406 119.628906 C 243.402344 119.628906 246.109375 116.921875 246.109375 113.585938 L 246.109375 81.503906 L 292.859375 81.503906 L 295.792969 125.964844 C 293.140625 125.429688 290.40625 125.140625 287.59375 125.140625 C 280.585938 125.140625 273.988281 126.890625 268.28125 129.945312 C 262.574219 126.902344 255.976562 125.140625 248.96875 125.140625 C 238.324219 125.140625 228.617188 129.167969 221.550781 135.664062 C 214.355469 142.277344 209.886719 151.433594 209.886719 161.542969 L 209.886719 168.597656 L 206.539062 168.597656 C 206.503906 168.597656 206.457031 168.589844 206.417969 168.589844 L 180.820312 168.609375 C 177.765625 168.609375 175.140625 170.914062 174.820312 174.023438 L 155.003906 360.90625 C 139.582031 360.90625 96.542969 360.90625 96.542969 360.90625 L 78.074219 81.503906 Z M 40.207031 81.503906 L 65.984375 81.503906 L 84.378906 360.042969 C 65.734375 360.25 12.667969 360.851562 12.667969 360.851562 Z M 186.226562 180.6875 L 200.757812 180.6875 L 212.660156 360.90625 C 198.746094 360.90625 167.109375 360.90625 167.109375 360.90625 Z M 224.746094 360.90625 L 212.847656 180.6875 L 248.5 180.6875 L 248.5 198.640625 C 248.5 201.976562 251.207031 204.683594 254.542969 204.683594 C 257.878906 204.683594 260.589844 201.976562 260.589844 198.640625 L 260.589844 180.6875 L 314.589844 180.6875 L 314.589844 198.640625 C 314.589844 201.976562 317.296875 204.683594 320.632812 204.683594 C 323.96875 204.683594 326.675781 201.976562 326.675781 198.640625 L 326.675781 180.6875 L 350.429688 180.6875 L 362.332031 360.90625 Z M 224.746094 360.90625 " fill-opacity="1" fill-rule="nonzero"/></g></svg>