<svg xmlns="http://www.w3.org/2000/svg" xmlns:xlink="http://www.w3.org/1999/xlink" width="500" zoomAndPan="magnify" viewBox="0 0 375 374.999991" height="500" preserveAspectRatio="xMidYMid meet" version="1.0"><path fill="#10b981" d="M 213.050781 173 C 208.457031 139.4375 197.285156 110.660156 191.042969 96.492188 C 187.628906 88.757812 178.917969 84.625 170.761719 86.886719 C 170.386719 86.988281 170.027344 87.160156 169.710938 87.382812 C 125.902344 118.242188 72.308594 133.539062 18.808594 130.464844 L 15.203125 130.257812 C 14.828125 130.234375 14.453125 130.277344 14.09375 130.378906 C 5.445312 132.777344 0.0820312 141.546875 1.882812 150.351562 C 11.414062 196.894531 26.851562 234.722656 47.757812 262.800781 C 64.121094 284.765625 83.726562 300.71875 106.039062 310.214844 C 115.117188 314.074219 124.582031 315.917969 133.90625 315.917969 C 159.132812 315.917969 183.410156 302.460938 196.535156 279.042969 C 213.085938 249.53125 218.636719 213.851562 213.050781 173.007812 Z M 190.574219 275.695312 C 174.304688 304.722656 139.113281 316.847656 108.714844 303.921875 C 46.777344 277.566406 20.074219 205.117188 8.570312 148.976562 C 7.519531 143.855469 10.507812 138.746094 15.410156 137.117188 L 18.40625 137.285156 C 73.230469 140.445312 128.140625 124.835938 173.121094 93.332031 C 177.867188 92.292969 182.8125 94.761719 184.785156 99.25 C 190.890625 113.09375 201.796875 141.199219 206.277344 173.921875 C 211.660156 213.265625 206.382812 247.507812 190.574219 275.695312 Z M 190.574219 275.695312 " fill-opacity="1" fill-rule="nonzero"/><path fill="#10b981" d="M 360.785156 92.011719 C 360.402344 91.933594 360.007812 91.925781 359.625 91.976562 C 306.59375 99.660156 251.878906 89.046875 205.5625 62.078125 L 202.445312 60.261719 C 202.121094 60.070312 201.769531 59.933594 201.402344 59.867188 C 192.605469 58.089844 183.84375 63.488281 181.472656 72.148438 C 180.933594 74.101562 180.421875 76.03125 179.917969 77.953125 C 179.4375 79.78125 180.539062 81.644531 182.367188 82.121094 C 184.195312 82.589844 186.058594 81.496094 186.535156 79.671875 C 187.023438 77.78125 187.535156 75.878906 188.0625 73.949219 C 189.445312 68.910156 194.417969 65.707031 199.539062 66.46875 L 202.136719 67.980469 C 239.660156 89.824219 282.539062 101.242188 325.714844 101.242188 C 337.140625 101.242188 348.601562 100.4375 359.984375 98.824219 C 364.6875 100.039062 367.976562 104.476562 367.710938 109.378906 C 366.890625 124.484375 363.894531 154.476562 353.074219 185.691406 C 340.070312 223.203125 319.855469 251.34375 293 269.328125 C 267.839844 286.175781 234.894531 283.722656 212.878906 263.375 C 211.496094 262.09375 209.335938 262.179688 208.054688 263.5625 C 206.773438 264.945312 206.859375 267.105469 208.242188 268.386719 C 221.796875 280.914062 239.085938 287.3125 256.550781 287.3125 C 270.460938 287.3125 284.476562 283.253906 296.796875 274.996094 C 324.917969 256.167969 346.019531 226.867188 359.523438 187.917969 C 370.613281 155.921875 373.6875 125.203125 374.527344 109.738281 C 374.988281 101.292969 369.078125 93.667969 360.792969 91.992188 Z M 360.785156 92.011719 " fill-opacity="1" fill-rule="nonzero"/><path fill="#10b981" d="M 219.660156 196.261719 C 217.917969 196.96875 217.074219 198.960938 217.78125 200.710938 C 218.488281 202.453125 220.480469 203.296875 222.230469 202.589844 C 222.476562 202.488281 247.304688 192.667969 266.039062 203.707031 C 275.765625 209.4375 282.316406 219.855469 285.578125 234.734375 C 273.664062 225.867188 248.480469 210.984375 220.199219 217.363281 C 218.355469 217.78125 217.199219 219.609375 217.621094 221.445312 C 218.039062 223.289062 219.863281 224.441406 221.699219 224.023438 C 256.585938 216.148438 287.789062 245.339844 288.105469 245.636719 C 288.753906 246.261719 289.609375 246.585938 290.460938 246.585938 C 290.984375 246.585938 291.503906 246.464844 291.992188 246.21875 C 293.28125 245.570312 294.023438 244.1875 293.851562 242.75 C 291.179688 220.855469 282.972656 205.730469 269.472656 197.796875 C 247.796875 185.058594 220.796875 195.792969 219.660156 196.261719 Z M 219.660156 196.261719 " fill-opacity="1" fill-rule="nonzero"/><path fill="#10b981" d="M 253.902344 121.316406 C 252.914062 120.703125 251.675781 120.636719 250.625 121.140625 C 228.882812 131.582031 212.339844 129.542969 212.179688 129.523438 C 210.316406 129.277344 208.59375 130.574219 208.335938 132.445312 C 208.082031 134.316406 209.386719 136.039062 211.25 136.296875 C 211.933594 136.390625 226.832031 138.3125 247.441406 130.011719 C 244.980469 136.5 237.679688 146.527344 215.960938 149.601562 C 214.09375 149.867188 212.792969 151.589844 213.058594 153.460938 C 213.296875 155.167969 214.765625 156.398438 216.441406 156.398438 C 216.601562 156.398438 216.765625 156.390625 216.925781 156.363281 C 227.867188 154.820312 242.582031 150.472656 250.589844 138.601562 C 255.550781 131.25 255.519531 124.460938 255.519531 124.179688 C 255.5 123.007812 254.894531 121.933594 253.902344 121.316406 Z M 253.902344 121.316406 " fill-opacity="1" fill-rule="nonzero"/><path fill="#10b981" d="M 348.855469 156.203125 C 348.464844 154.878906 347.308594 153.929688 345.933594 153.785156 L 329.488281 152.070312 C 314.988281 150.558594 301.359375 144.007812 291.121094 133.632812 L 284.492188 126.921875 C 283.597656 126.015625 282.28125 125.683594 281.058594 126.058594 C 279.847656 126.433594 278.933594 127.449219 278.703125 128.695312 C 278.644531 128.996094 277.335938 136.226562 278.882812 144.871094 C 281 156.628906 287.386719 165.375 297.363281 170.15625 C 301.972656 172.367188 307.039062 173.46875 312.417969 173.46875 C 318.515625 173.46875 325.023438 172.042969 331.742188 169.207031 C 341.042969 165.28125 347.472656 160.046875 347.746094 159.832031 C 348.8125 158.960938 349.25 157.527344 348.855469 156.210938 Z M 300.324219 163.992188 C 287.480469 157.832031 285.074219 145.125 284.9375 137.089844 L 286.261719 138.429688 C 297.609375 149.925781 312.707031 157.183594 328.777344 158.867188 L 335.757812 159.59375 C 327.242188 164.398438 313.015625 170.078125 300.316406 163.992188 Z M 300.324219 163.992188 " fill-opacity="1" fill-rule="nonzero"/><path fill="#10b981" d="M 186.015625 153.769531 C 176.46875 146.585938 165.835938 144.519531 155.273438 147.800781 C 144.835938 151.035156 136.347656 159.363281 130.710938 171.871094 C 126.570312 181.078125 125.410156 189.285156 125.355469 189.636719 C 125.167969 191 125.820312 192.34375 127.003906 193.042969 C 127.542969 193.359375 128.140625 193.511719 128.738281 193.511719 C 129.464844 193.511719 130.183594 193.28125 130.789062 192.828125 L 144.015625 182.90625 C 155.671875 174.152344 170.113281 169.6875 184.683594 170.328125 L 194.101562 170.738281 C 195.382812 170.789062 196.570312 170.140625 197.210938 169.039062 C 197.851562 167.9375 197.824219 166.578125 197.140625 165.5 C 196.980469 165.238281 193.023438 159.046875 186.003906 153.769531 Z M 184.980469 163.503906 C 168.832031 162.792969 152.835938 167.746094 139.910156 177.441406 L 134.296875 181.648438 C 137.269531 172.332031 143.835938 158.5 157.285156 154.324219 C 160.019531 153.476562 162.617188 153.109375 165.074219 153.109375 C 174.871094 153.109375 182.410156 158.945312 186.859375 163.589844 L 184.972656 163.503906 Z M 184.980469 163.503906 " fill-opacity="1" fill-rule="nonzero"/><path fill="#10b981" d="M 175.964844 227.660156 C 174.851562 226.910156 173.402344 226.875 172.257812 227.578125 L 154.074219 238.71875 C 137.816406 248.6875 118.859375 253.152344 100.695312 251.289062 L 89.097656 250.105469 C 87.75 249.96875 86.449219 250.632812 85.777344 251.8125 C 85.109375 252.988281 85.195312 254.449219 86.007812 255.535156 C 86.742188 256.527344 102.273438 276.945312 127.507812 276.945312 C 131.078125 276.945312 134.84375 276.535156 138.789062 275.601562 C 170.625 268.089844 177.140625 232.582031 177.40625 231.070312 C 177.636719 229.746094 177.074219 228.414062 175.964844 227.660156 Z M 137.226562 268.949219 C 118.933594 273.273438 105.007812 264.449219 97.550781 257.832031 L 100.003906 258.078125 C 119.636719 260.09375 140.113281 255.289062 157.644531 244.542969 L 168.34375 237.984375 C 164.671875 248.070312 155.945312 264.535156 137.226562 268.949219 Z M 137.226562 268.949219 " fill-opacity="1" fill-rule="nonzero"/><path fill="#10b981" d="M 93 200.242188 L 109.492188 201.53125 C 110.867188 201.640625 112.171875 200.90625 112.796875 199.675781 C 113.425781 198.449219 113.257812 196.96875 112.359375 195.910156 C 112.136719 195.648438 106.75 189.335938 98.320312 183.792969 C 86.851562 176.253906 75.222656 173.777344 64.683594 176.644531 C 54.007812 179.542969 46.144531 186.988281 41.933594 198.175781 C 38.84375 206.398438 38.824219 213.742188 38.824219 214.050781 C 38.824219 215.320312 39.535156 216.484375 40.671875 217.074219 C 41.164062 217.328125 41.703125 217.457031 42.242188 217.457031 C 42.933594 217.457031 43.617188 217.253906 44.195312 216.84375 L 51.925781 211.4375 C 63.871094 203.085938 78.464844 199.113281 92.992188 200.25 Z M 48.015625 205.824219 L 46.46875 206.910156 C 48.046875 199.027344 52.71875 186.96875 66.46875 183.238281 C 68.824219 182.597656 71.15625 182.316406 73.445312 182.316406 C 84.382812 182.316406 94.316406 188.789062 100.523438 193.980469 L 93.53125 193.433594 C 77.425781 192.179688 61.257812 196.585938 48.015625 205.835938 Z M 48.015625 205.824219 " fill-opacity="1" fill-rule="nonzero"/><path fill="#10b981" d="M 322.160156 186.695312 L 323.03125 189.234375 C 323.648438 191.019531 325.585938 191.964844 327.371094 191.359375 C 329.15625 190.746094 330.101562 188.804688 329.496094 187.023438 L 327.0625 179.933594 C 326.703125 178.890625 325.867188 178.082031 324.808594 177.773438 C 323.75 177.457031 322.605469 177.671875 321.734375 178.34375 C 317.371094 181.734375 312.851562 185.238281 309.308594 189.898438 C 305.089844 195.457031 303.203125 201.683594 303.996094 207.441406 C 304.996094 214.679688 310.519531 220.539062 317.140625 221.367188 C 317.667969 221.4375 318.199219 221.460938 318.726562 221.460938 C 323.996094 221.460938 329.113281 218.257812 331.296875 213.425781 C 333.921875 207.628906 334.234375 201.335938 332.195312 195.707031 C 331.554688 193.929688 329.589844 193.015625 327.824219 193.65625 C 326.046875 194.296875 325.132812 196.261719 325.773438 198.03125 C 327.207031 201.972656 326.960938 206.441406 325.074219 210.609375 C 323.910156 213.1875 320.804688 214.929688 317.992188 214.578125 C 314.507812 214.144531 311.332031 210.589844 310.769531 206.5 C 310.230469 202.613281 311.683594 198.0625 314.757812 194.023438 C 316.824219 191.308594 319.429688 188.933594 322.160156 186.707031 Z M 322.160156 186.695312 " fill-opacity="1" fill-rule="nonzero"/></svg>