<svg xmlns="http://www.w3.org/2000/svg" xmlns:xlink="http://www.w3.org/1999/xlink" width="500" zoomAndPan="magnify" viewBox="0 0 375 374.999991" height="500" preserveAspectRatio="xMidYMid meet" version="1.0"><path fill="#10b981" d="M 368.429688 335.464844 L 98.128906 335.464844 C 94.40625 335.464844 91.558594 332.617188 91.558594 328.890625 L 91.558594 285.082031 C 91.558594 281.578125 94.40625 278.511719 98.128906 278.511719 C 109.738281 278.511719 119.378906 269.09375 119.378906 257.265625 C 119.378906 245.65625 109.738281 236.019531 98.128906 236.019531 C 94.40625 236.019531 91.558594 233.171875 91.558594 229.445312 L 91.558594 185.636719 C 91.558594 182.132812 94.40625 179.066406 98.128906 179.066406 L 368.429688 179.066406 C 372.152344 179.066406 375 182.132812 375 185.636719 L 375 229.445312 C 375 233.171875 372.152344 236.019531 368.429688 236.019531 C 356.820312 236.019531 347.183594 245.65625 347.183594 257.265625 C 347.183594 269.09375 356.820312 278.511719 368.429688 278.511719 C 372.152344 278.511719 375 281.578125 375 285.082031 L 375 328.890625 C 375 332.617188 372.152344 335.464844 368.429688 335.464844 Z M 104.703125 322.320312 L 361.859375 322.320312 L 361.859375 290.996094 C 346.085938 287.929688 334.039062 273.910156 334.039062 257.265625 C 334.039062 240.617188 346.085938 226.597656 361.859375 223.53125 L 361.859375 192.210938 L 104.703125 192.210938 L 104.703125 223.53125 C 120.472656 226.597656 132.519531 240.617188 132.519531 257.265625 C 132.519531 274.132812 120.472656 287.929688 104.703125 290.996094 Z M 104.703125 322.320312 " fill-opacity="1" fill-rule="evenodd"/><path fill="#10b981" d="M 98.128906 335.464844 C 96.160156 335.464844 94.1875 334.585938 92.875 333.054688 L 65.273438 299.101562 C 63.085938 296.253906 63.304688 292.09375 66.152344 289.902344 C 75.351562 282.453125 76.664062 269.09375 69.21875 259.894531 C 61.769531 250.914062 48.410156 249.597656 39.425781 257.046875 C 36.578125 259.234375 32.417969 258.796875 30.007812 255.949219 L 2.410156 222.21875 C 0 219.371094 0.4375 215.207031 3.285156 212.800781 L 212.910156 41.726562 C 215.757812 39.535156 219.699219 39.976562 222.109375 42.824219 L 249.707031 76.554688 C 252.117188 79.402344 251.679688 83.566406 248.832031 85.972656 C 239.851562 93.421875 238.316406 106.78125 245.765625 115.765625 C 249.488281 120.144531 254.527344 122.992188 260.222656 123.429688 C 265.917969 124.085938 271.394531 122.335938 275.773438 118.832031 C 278.621094 116.640625 282.785156 116.859375 284.972656 119.707031 L 312.574219 153.65625 C 314.984375 156.503906 314.542969 160.667969 311.695312 162.859375 L 277.527344 190.894531 C 274.679688 193.085938 270.734375 192.648438 268.328125 189.800781 C 266.136719 186.953125 266.355469 183.007812 269.203125 180.601562 L 298.335938 156.945312 L 278.621094 132.628906 C 272.488281 135.914062 265.699219 137.230469 258.90625 136.574219 C 249.707031 135.695312 241.382812 131.316406 235.6875 124.085938 C 224.957031 111.164062 225.394531 92.765625 235.910156 80.277344 L 215.976562 56.183594 L 16.648438 218.933594 L 36.578125 243.027344 C 50.816406 235.359375 68.777344 238.644531 79.511719 251.570312 C 90.027344 264.710938 89.589844 283.113281 79.292969 295.378906 L 103.167969 324.730469 C 105.359375 327.578125 105.140625 331.738281 102.292969 333.929688 C 100.976562 335.023438 99.445312 335.464844 98.128906 335.464844 Z M 98.128906 335.464844 " fill-opacity="1" fill-rule="evenodd"/><path fill="#10b981" d="M 271.832031 302.386719 L 194.726562 302.386719 C 184.214844 302.386719 175.453125 293.625 175.453125 283.113281 L 175.453125 231.636719 C 175.453125 220.902344 184.214844 212.140625 194.726562 212.140625 L 271.832031 212.140625 C 282.34375 212.140625 291.105469 220.902344 291.105469 231.636719 L 291.105469 283.113281 C 291.105469 293.625 282.34375 302.386719 271.832031 302.386719 Z M 194.726562 225.285156 C 191.441406 225.285156 188.59375 228.132812 188.59375 231.636719 L 188.59375 283.113281 C 188.59375 286.398438 191.441406 289.246094 194.726562 289.246094 L 271.832031 289.246094 C 275.117188 289.246094 277.964844 286.398438 277.964844 283.113281 L 277.964844 231.636719 C 277.964844 228.132812 275.117188 225.285156 271.832031 225.285156 Z M 194.726562 225.285156 " fill-opacity="1" fill-rule="evenodd"/><path fill="#10b981" d="M 152.015625 335.464844 C 148.292969 335.464844 145.445312 332.617188 145.445312 328.890625 L 145.445312 264.054688 C 145.445312 260.332031 148.292969 257.484375 152.015625 257.484375 C 155.738281 257.484375 158.585938 260.332031 158.585938 264.054688 L 158.585938 328.890625 C 158.585938 332.617188 155.738281 335.464844 152.015625 335.464844 Z M 152.015625 248.941406 C 148.292969 248.941406 145.445312 245.875 145.445312 242.371094 L 145.445312 220.683594 C 145.445312 216.960938 148.292969 214.113281 152.015625 214.113281 C 155.738281 214.113281 158.585938 216.960938 158.585938 220.683594 L 158.585938 242.371094 C 158.585938 245.875 155.738281 248.941406 152.015625 248.941406 Z M 152.015625 205.351562 C 148.292969 205.351562 145.445312 202.503906 145.445312 198.78125 L 145.445312 185.636719 C 145.445312 182.132812 148.292969 179.066406 152.015625 179.066406 C 155.738281 179.066406 158.585938 182.132812 158.585938 185.636719 L 158.585938 198.78125 C 158.585938 202.503906 155.738281 205.351562 152.015625 205.351562 Z M 152.015625 205.351562 " fill-opacity="1" fill-rule="evenodd"/><path fill="#10b981" d="M 314.542969 335.464844 C 310.820312 335.464844 307.972656 332.617188 307.972656 328.890625 L 307.972656 315.75 C 307.972656 312.027344 310.820312 309.179688 314.542969 309.179688 C 318.269531 309.179688 321.117188 312.027344 321.117188 315.75 L 321.117188 328.890625 C 321.117188 332.617188 318.269531 335.464844 314.542969 335.464844 Z M 314.542969 300.636719 C 310.820312 300.636719 307.972656 297.570312 307.972656 294.0625 L 307.972656 272.160156 C 307.972656 268.65625 310.820312 265.589844 314.542969 265.589844 C 318.269531 265.589844 321.117188 268.65625 321.117188 272.160156 L 321.117188 294.0625 C 321.117188 297.570312 318.269531 300.636719 314.542969 300.636719 Z M 314.542969 257.046875 C 310.820312 257.046875 307.972656 254.199219 307.972656 250.472656 L 307.972656 185.636719 C 307.972656 182.132812 310.820312 179.066406 314.542969 179.066406 C 318.269531 179.066406 321.117188 182.132812 321.117188 185.636719 L 321.117188 250.472656 C 321.117188 254.199219 318.269531 257.046875 314.542969 257.046875 Z M 314.542969 257.046875 " fill-opacity="1" fill-rule="evenodd"/></svg>