<svg xmlns="http://www.w3.org/2000/svg" xmlns:xlink="http://www.w3.org/1999/xlink" width="500" zoomAndPan="magnify" viewBox="0 0 375 374.999991" height="500" preserveAspectRatio="xMidYMid meet" version="1.0"><defs><clipPath id="e45681635d"><path d="M 0 37.5 L 375 37.5 L 375 337.5 L 0 337.5 Z M 0 37.5 " clip-rule="nonzero"/></clipPath></defs><g clip-path="url(#e45681635d)"><path fill="#10b981" d="M 262.847656 306.003906 C 262.847656 306.003906 239.300781 279.316406 206.332031 274.605469 C 206.332031 274.605469 204.765625 274.605469 203.195312 274.605469 L 171.796875 274.605469 C 171.796875 274.605469 170.226562 274.605469 168.65625 274.605469 C 135.691406 279.316406 113.714844 306.003906 112.144531 306.003906 C 109.003906 309.140625 109.003906 312.28125 109.003906 316.992188 L 109.003906 321.699219 C 109.003906 331.121094 115.285156 337.398438 124.703125 337.398438 L 250.289062 337.398438 C 259.707031 337.398438 265.988281 331.121094 265.988281 321.699219 L 265.988281 316.992188 C 265.988281 313.851562 265.988281 309.140625 262.847656 306.003906 Z M 328.78125 116.054688 C 328.78125 98.785156 314.652344 84.65625 297.382812 84.65625 C 280.117188 84.65625 265.988281 98.785156 265.988281 116.054688 L 265.988281 131.753906 C 265.988281 149.019531 280.117188 163.148438 297.382812 163.148438 C 314.652344 163.148438 328.78125 149.019531 328.78125 131.753906 Z M 109.003906 116.054688 C 109.003906 98.785156 94.875 84.65625 77.609375 84.65625 C 60.339844 84.65625 46.210938 98.785156 46.210938 116.054688 L 46.210938 131.753906 C 46.210938 149.019531 60.339844 163.148438 77.609375 163.148438 C 94.875 163.148438 109.003906 149.019531 109.003906 131.753906 Z M 187.496094 37.5625 C 170.226562 37.5625 156.097656 51.691406 156.097656 68.960938 L 156.097656 84.65625 C 156.097656 101.925781 170.226562 116.054688 187.496094 116.054688 C 204.765625 116.054688 218.890625 101.925781 218.890625 84.65625 L 218.890625 68.960938 C 218.890625 51.691406 204.765625 37.5625 187.496094 37.5625 Z M 372.734375 227.511719 C 372.734375 227.511719 349.1875 200.824219 316.222656 194.546875 C 316.222656 194.546875 314.652344 194.546875 313.082031 194.546875 L 281.683594 194.546875 C 281.683594 194.546875 280.117188 194.546875 278.546875 194.546875 C 267.558594 196.113281 258.136719 200.824219 250.289062 205.535156 L 250.289062 210.242188 C 250.289062 229.082031 242.441406 244.78125 229.882812 255.769531 C 229.882812 255.769531 233.019531 255.769531 234.589844 255.769531 L 360.175781 255.769531 C 369.59375 255.769531 375.875 249.488281 375.875 240.070312 L 375.875 235.359375 C 375.875 232.222656 375.875 227.511719 372.734375 224.371094 Z M 124.703125 210.242188 L 124.703125 205.535156 C 116.855469 200.824219 107.433594 196.113281 96.445312 194.546875 C 96.445312 194.546875 94.875 194.546875 93.304688 194.546875 L 61.910156 194.546875 C 61.910156 194.546875 60.339844 194.546875 58.769531 194.546875 C 25.804688 199.253906 3.828125 225.941406 2.257812 227.511719 C -0.882812 230.652344 -0.882812 233.789062 -0.882812 238.5 L -0.882812 243.210938 C -0.882812 252.628906 5.394531 258.90625 14.816406 258.90625 L 140.402344 258.90625 C 141.972656 258.90625 143.539062 258.90625 145.109375 258.90625 C 132.550781 247.917969 124.703125 230.652344 124.703125 213.382812 Z M 218.890625 194.546875 C 218.890625 177.277344 204.765625 163.148438 187.496094 163.148438 C 170.226562 163.148438 156.097656 177.277344 156.097656 194.546875 L 156.097656 210.242188 C 156.097656 227.511719 170.226562 241.640625 187.496094 241.640625 C 204.765625 241.640625 218.890625 227.511719 218.890625 210.242188 Z M 218.890625 194.546875 " fill-opacity="1" fill-rule="nonzero"/></g></svg>